<?xml version="1.0" encoding="UTF-8" standalone="no"?><!DOCTYPE svg PUBLIC "-//W3C//DTD SVG 1.1//EN"
        "http://www.w3.org/Graphics/SVG/1.1/DTD/svg11.dtd">
<svg width="100%" height="100%" viewBox="0 0 529 222" version="1.1"
     xmlns="http://www.w3.org/2000/svg"
     xml:space="preserve"
     style="fill-rule:evenodd;clip-rule:evenodd;stroke-linejoin:round;stroke-miterlimit:2;"
     class="fill-current stroke-current">
    <path d="M109.965,103.824l42.23,0c7.328,-0.248 14.656,0.507 21.779,2.244c6.625,1.974 12.59,5.712 17.254,10.814c4.963,5.487 8.69,11.975 10.929,19.026c2.706,8.996 3.969,18.365 3.743,27.756c0.175,8.466 -1.011,16.905 -3.512,24.995c-2.403,7.781 -6.602,14.888 -12.257,20.747c-4.601,4.356 -10.163,7.567 -16.236,9.373c-6.652,1.858 -13.547,2.696 -20.451,2.484l-43.479,-0l0,-117.439Zm23.107,19.867l0,77.786l17.249,-0c4.685,0.162 9.374,-0.215 13.973,-1.123c3.472,-0.817 6.682,-2.498 9.331,-4.886c2.966,-3.189 5.051,-7.095 6.05,-11.334c1.768,-7.028 2.555,-14.266 2.341,-21.51c0.248,-7.046 -0.541,-14.091 -2.341,-20.909c-1.219,-4.271 -3.471,-8.178 -6.556,-11.374c-2.976,-2.81 -6.685,-4.726 -10.699,-5.527c-6.273,-0.963 -12.622,-1.339 -18.965,-1.123l-10.383,-0Z"
          style="fill-rule:nonzero;"/>
    <path d="M225.495,221.263l0,-117.439l84.854,0l-0,19.867l-61.747,0l0,26.035l57.453,-0l-0,19.788l-57.453,0l0,31.963l63.93,-0l0,19.786l-87.037,-0Z"
          style="fill-rule:nonzero;"/>
    <path d="M435.322,221.263l-25.133,-0l-9.995,-26.676l-45.742,0l-9.443,26.676l-24.514,-0l44.571,-117.439l24.435,0l45.821,117.439Zm-42.54,-46.462l-15.768,-43.579l-15.459,43.579l31.227,0Z"
          style="fill-rule:nonzero;"/>
    <path d="M448.203,221.263l0,-116.477l23.108,-0l-0,96.691l57.452,-0l0,19.786l-80.56,-0Z" style="fill-rule:nonzero;"/>
    <path d="M98.013,194.672l-0,-19.06l-28.388,0l-0,-29.529c-0.012,-10.225 -8.423,-18.635 -18.648,-18.646l-30.144,0l0,-58.429l30.144,0c10.225,-0.01 18.636,-8.421 18.648,-18.646l-0,-29.529l58.427,0l-0,29.529c0.01,10.225 8.42,18.635 18.644,18.646l28.918,0l0,26.015l20.834,-0l-0,-28.202c-0.012,-10.225 -8.423,-18.635 -18.649,-18.646l-28.914,-0l0,-29.529c-0.012,-10.225 -8.423,-18.635 -18.648,-18.646l-62.801,0c-10.225,0.011 -18.634,8.422 -18.645,18.646l0,29.529l-30.143,-0c-10.225,0.011 -18.636,8.421 -18.648,18.646l0,62.803c0.012,10.226 8.423,18.636 18.648,18.647l30.143,-0l0,29.528c0.011,10.225 8.42,18.635 18.645,18.647l30.756,-0c-0.11,-0.585 -0.17,-1.179 -0.179,-1.774Z"
          style="fill-rule:nonzero;"/>
</svg>
