<svg xmlns="http://www.w3.org/2000/svg" viewBox="0 0 141.73228 141.73228">
    <defs>
        <style>
            .cls-1,.cls-2{fill:none;}.cls-2{stroke:#3a4145;stroke-linecap:round;stroke-linejoin:round;stroke-width:3px;}
        </style>
    </defs>
    <path class="cls-1"
          d="M53.82239,60.59539c.00311,2.21176,3.28028,3.7077,7.66232,4.07355-.12437-2.76323-.15341-5.51485-.11368-8.159C57.04181,56.90305,53.81928,58.40107,53.82239,60.59539Z"/>
    <path class="cls-1"
          d="M41.45172,60.61347c-.00363-2.5651-4.40667-4.17108-9.83539-4.16324-5.42852.00784-9.82475,3.12849-9.8232,4.19176.00156,1.06333,4.4068,4.17115,9.83539,4.16311C37.05723,64.79726,41.45554,63.17844,41.45172,60.61347Z"/>
    <path class="cls-1"
          d="M47.81991,88.42848c-8.15338.0118-12.545,6.77268-13.34152,9.17491,4.18975-2.32381,7.0358-3.59907,13.34969-3.60828,6.31363-.0092,12.046,3.05481,13.3598,3.56946C60.7068,94.18125,55.97316,88.41643,47.81991,88.42848Z"/>
    <path class="cls-1"
          d="M81.86748,93.72337c.50331,3.38021,5.28645,10.58815,13.43938,10.52288,8.15312-.06552,12.48863-8.32946,13.2692-10.73688-4.17446,2.35129-7.01189,3.64515-13.32552,3.6959C88.93685,97.25582,83.18467,94.2296,81.86748,93.72337Z"/>
    <path class="cls-1"
          d="M110.85969,64.31449c-5.42833.04336-9.81614,1.691-9.79546,4.25592.02048,2.565,4.43414,4.14225,9.86247,4.0987,5.42839-.04343,9.80408-3.19279,9.79546-4.25618C120.71374,67.34966,116.28821,64.27088,110.85969,64.31449Z"/>
    <path class="cls-2" d="M61.371,56.50992c-.03973,2.64417-.01069,5.39579.11368,8.159"/>
    <path class="cls-2"
          d="M68.60956,93.79155c6.20863,12.26678,16.09684,22.92933,26.11382,22.38078.06325-.0033.12554-.00939.18749-.01646.06209.00609.12444.011.18769.01342,13.15124.509,25.77928-18.26842,30.19534-34.52294,4.416-16.25427,1.30281-43.55534-.36339-45.33637-5.24757-5.61005-23.2443-1.33456-30.66864-1.14072-3.38-.03409-9.23071-.56954-14.96773-.74764m.39256,30.15859c5.02838.12029,8.98786,1.66088,9.00724,4.08936.02068,2.56491-4.36707,4.21257-9.79565,4.25618-.234.00188-.4632-.00939-.69314-.01873m17.10171,31.33923c-8.15293.06527-12.93607-7.14267-13.43938-10.52288,1.31719.50623,7.06937,3.53245,13.38306,3.4819,6.31363-.05075,9.15106-1.34461,13.32552-3.6959C107.79549,95.91679,103.46,104.18073,95.30686,104.24625ZM110.9267,72.66911c-5.42833.04355-9.842-1.53372-9.86247-4.0987-.02068-2.5649,4.36713-4.21256,9.79546-4.25592,5.42852-.04361,9.85405,3.03517,9.86247,4.09844C120.73078,69.47632,116.35509,72.62568,110.9267,72.66911Z"/>
    <path class="cls-2"
          d="M79.6867,64.58021c-.28245-.00674-.56651-.0114-.85517-.00907-5.42859.04342-9.80408,3.19272-9.79572,4.256.0083,1.01758,4.06383,3.87322,9.16934,4.0799"/>
    <path class="cls-2"
          d="M61.48471,64.66894c-4.382-.36585-7.65921-1.86179-7.66232-4.07355-.00311-2.19432,3.21942-3.69234,7.54864-4.08547.15315-10.18905,1.34765-18.73135,2.24449-19.70868,2.1045-2.29316,8.81-2.59278,15.67862-2.37962-.44919-3.26718-.96449-5.46417-1.394-5.9295-5.211-5.64427-23.23511-1.48686-30.66068-1.34169-7.42582-.12366-26.76645-2.75234-30.65646,1.4308-1.66081,1.7859-4.50368,29.12592.06585,45.33786,4.56954,16.21188,17.37482,34.869,30.52068,34.23577.06313-.00311.12554-.00862.18763-.01543.062.00661.12424.01186.18736.01472,7.67787.34757,15.21738-5.88718,21.06509-14.3626a67.82264,67.82264,0,0,1-4.63078-11.65388A77.91359,77.91359,0,0,1,61.48471,64.66894Zm-29.85619.13616c-5.42859.008-9.83383-3.09978-9.83539-4.16311-.00155-1.06327,4.39468-4.18392,9.8232-4.19176,5.42872-.00784,9.83176,1.59814,9.83539,4.16324C41.45554,63.17844,37.05723,64.79726,31.62852,64.8051Zm16.19956,29.19c-6.31389.00921-9.15994,1.28447-13.34969,3.60828.79651-2.40223,5.18814-9.16311,13.34152-9.17491,8.15325-.012,12.88689,5.75277,13.368,9.13609C59.87406,97.04992,54.14171,93.98591,47.82808,93.99511Z"/>
    <path class="cls-2" d="M63.61552,36.80124c-.89684.97733-2.09134,9.51963-2.24449,19.70868"/>
</svg>
