<svg id="Ebene_1" data-name="Ebene 1" xmlns="http://www.w3.org/2000/svg" viewBox="0 0 141.73228 141.73228"><defs><style>.cls-1{fill:none;stroke:#3a4145;stroke-linecap:round;stroke-linejoin:round;stroke-width:3px;fill-rule:evenodd;}</style></defs><path class="cls-1" d="M65.93191,124.942l-5.20381-6.00691a1.55,1.55,0,0,1,.0476-2.19519L83.30633,96.94546a1.709,1.709,0,0,1,2.21921.16737l5.22972,6.12253a1.396,1.396,0,0,1-.07147,2.07917L68.15127,125.1071a1.58931,1.58931,0,0,1-2.21936-.16507ZM43.21155,78.58292l4.5358-4.06212a1.19964,1.19964,0,0,1,1.60985.16576l23.73824,27.09a1.19941,1.19941,0,0,1-.16428,1.6097l-4.43991,3.92208a1.206,1.206,0,0,1-1.72964-.14189l-23.715-26.97312a1.137,1.137,0,0,1,.16489-1.61043ZM26.384,59.95333l1.259,1.44986c.1395.09312.39629.16423.49047.02317L25.02608,64.1112a1.10336,1.10336,0,0,0-.05015,1.587l3.78317,4.34893a1.20417,1.20417,0,0,0,1.6104.16474L41.00566,60.805a1.17441,1.17441,0,0,0,.16388-1.61174l-3.89745-4.32388a1.0338,1.0338,0,0,0-1.49557-.18778l-3.108,2.68206c.1169-.02329.18685-.2791.02391-.48985L31.4542,55.543c-.16395-.21206-.28027-.18887-.49018-.0255l-4.55677,3.94628c-.093.13932-.16427.39614-.02321.48956Zm-.85437,18.87295,5.204,6.00764a1.49109,1.49109,0,0,0,2.21892.16591L55.4849,65.20639a1.39547,1.39547,0,0,0,.07063-2.0796L50.327,57.00326a1.70782,1.70782,0,0,0-2.21837-.1639L25.57727,76.63109a1.54886,1.54886,0,0,0-.0476,2.19519Zm59.3002,47.69481-1.26059-1.44954a.296.296,0,0,1,.02293-.49177l-3.10767,2.68352a1.15506,1.15506,0,0,1-1.58844-.047l-3.80374-4.46349a1.15854,1.15854,0,0,1,.04687-1.589l10.77359-9.31271a.99891.99891,0,0,1,1.47312.07133l3.92045,4.44234a1.15829,1.15829,0,0,1-.04811,1.58655l-3.10756,2.68411a.29469.29469,0,0,1,.49047.02318l1.23682,1.33409c.16264.2093.093.46656-.02406.48989L85.32048,126.545c-.21006.1634-.46729.09313-.49061-.02391Z"/><path class="cls-1" d="M91.39924,84.66811,86.19543,78.6612A1.55,1.55,0,0,1,86.243,76.466l22.53063-19.79446a1.709,1.709,0,0,1,2.21921.16736l5.22972,6.12253a1.396,1.396,0,0,1-.07147,2.07917L93.6186,84.83318a1.58931,1.58931,0,0,1-2.21936-.16507ZM68.67888,38.309l4.5358-4.06212a1.19965,1.19965,0,0,1,1.60985.16576l23.73824,27.09a1.19941,1.19941,0,0,1-.16428,1.6097l-4.43991,3.92208a1.206,1.206,0,0,1-1.72964-.14189L68.514,39.91944a1.13706,1.13706,0,0,1,.16489-1.61044ZM51.85137,19.67941l1.259,1.44986c.1395.09312.39629.16424.49047.02317l-3.10741,2.68484a1.10336,1.10336,0,0,0-.05015,1.587l3.78317,4.34893a1.20417,1.20417,0,0,0,1.6104.16474L66.473,20.53105a1.17441,1.17441,0,0,0,.16388-1.61174l-3.89745-4.32388a1.0338,1.0338,0,0,0-1.49557-.18778l-3.108,2.68207c.1169-.0233.18685-.27911.02391-.48986l-1.23827-1.33078c-.16395-.21206-.28027-.18888-.49018-.02551l-4.55677,3.94628c-.093.13932-.16427.39614-.02321.48956Zm-.85436,18.873L56.201,44.56a1.49109,1.49109,0,0,0,2.21892.16591L80.95223,24.93247a1.39547,1.39547,0,0,0,.07063-2.0796L75.7943,16.72934a1.70784,1.70784,0,0,0-2.21837-.1639L51.0446,36.35717a1.54885,1.54885,0,0,0-.04759,2.19519ZM110.2972,86.24717l-1.26058-1.44954a.296.296,0,0,1,.02292-.49177l-3.10767,2.68352a1.15506,1.15506,0,0,1-1.58844-.047l-3.80374-4.4635a1.15855,1.15855,0,0,1,.04687-1.589l10.77359-9.3127a.9989.9989,0,0,1,1.47312.07132l3.92045,4.44235a1.15827,1.15827,0,0,1-.04811,1.58654l-3.10756,2.68411a.29469.29469,0,0,1,.49047.02318l1.23682,1.33409c.16264.2093.093.46656-.02406.48989l-4.53347,4.06242c-.21006.1634-.46729.09313-.49061-.02391Z"/></svg>