<svg id="Ebene_1" data-name="Ebene 1" xmlns="http://www.w3.org/2000/svg" viewBox="0 0 141.73228 141.73228"><defs><style>.cls-1{fill:#3a4145;}</style></defs><path class="cls-1" d="M52.65679,58.49933l1.66628,14.376L19.45878,77.7295a1.156,1.156,0,0,1-.1393.0122.965.965,0,0,1-.44186-1.82409L52.65679,58.49933m2.48061-4.65448L17.50269,73.25122a3.965,3.965,0,0,0,1.81679,7.49048l.06308-.00048a4.16873,4.16873,0,0,0,.48492-.03968l37.77321-5.25915L55.1374,53.84485Z"/><path class="cls-1" d="M88.45287,58.01435,122.83,74.31971a.96678.96678,0,0,1-.336,1.83563l-.26517-.01129L87.22814,72.53492l1.22473-14.52057m-2.62558-4.56568-1.836,21.76838,38.0199,3.92047.47565.0202a3.96657,3.96657,0,0,0,1.63037-7.54785L85.82729,53.44867Z"/><path class="cls-1" d="M60.45354,117.58722l.214,1.84754-3.91977.713,3.70581-2.56055m2.40526-5.30835L50.10515,121.091a1.70654,1.70654,0,0,0,.96737,3.11072l.0289-.00025.27731-.02783,12.59238-2.29059-1.11231-9.60419Z"/><path class="cls-1" d="M82.50658,117.21759l3.97815,2.55793-4.14309-.5987.16494-1.95923m-2.57112-5.21991-.82039,9.744,12.8357,1.85486.27475.01715a1.70545,1.70545,0,0,0,.89035-3.141l-13.18041-8.475Z"/><path class="cls-1" d="M69.85531,17.203c8.95184,1.38269,10.24521,16.25866,10.41435,19.2622q.00489.08689.01483.17346l.01442.12409c.02182.18671.04114.35217.04825.48352-.01082.10565-.01958.21167-.02394.319q-.00738.06876-.01166.13843l-.01541.28784c-.00813.16437-.01653.33429-.02988.42346a2.94843,2.94843,0,0,0-.03193.4939l-1.206,14.28766-1.836,21.76825L74.0889,111.746l-.82017,9.74127-.1003,1.17834a2.99864,2.99864,0,0,0-.01042.30274l.01244.63635a.78415.78415,0,0,1-.0188.0863q-.01188.03525-.023.07093a1.54576,1.54576,0,0,1-1.49286.79712,1.52861,1.52861,0,0,1-1.45942-.74561,3.0054,3.0054,0,0,0-.14405-.34558l-.224-1.92993-1.1123-9.60413L64.43026,75.097,61.927,53.49939,60.26882,39.19452a3.01682,3.01682,0,0,0-.04315-.45062,7.3347,7.3347,0,0,1-.11807-1.06915,7.48223,7.48223,0,0,1,.06465-1.04828q.01224-.0933.01858-.1872c.41869-6.18359,2.97817-18.00952,9.66448-19.23632m-.031-3.02973C60.162,15.39258,57.58344,30.53937,57.19768,36.23658a10.43956,10.43956,0,0,0-.0899,1.47021,10.33517,10.33517,0,0,0,.16128,1.54553l-.01323.00342,1.69109,14.58911L61.4502,75.44239,65.716,112.27887l1.1123,9.60419.33829,2.91431.17445-.00391a4.446,4.446,0,0,0,4.29483,2.76557c.02948,0,.05874-.00025.08835-.00074a4.44125,4.44125,0,0,0,4.26964-2.907h.01856l.00534-.0686a3.3279,3.3279,0,0,0,.15059-.99964l-.01067-.663.1003-1.17835.82038-9.744,3.10343-36.78063,1.836-21.76838,1.23141-14.58935h-.016c.04776-.31891.0528-.64649.07275-.97211h.01969c0-.06073-.00507-.134-.00507-.19556.00507-.14129.03427-.27673.02893-.41949-.00532-.33148-.04748-.65265-.08456-.97571-.42-7.4574-3.10988-20.97522-13.44058-22.12323Z"/></svg>