<svg xmlns="http://www.w3.org/2000/svg" viewBox="0 0 141.73228 141.73228">
    <defs>
        <style>
            .cls-1{fill:none;stroke:#3a4145;stroke-linecap:round;stroke-linejoin:round;stroke-width:3px;}.cls-2{fill:#3a4145;}
        </style>
    </defs>
    <circle class="cls-1" cx="70.86614" cy="70.86614" r="56.69291"/>
    <path class="cls-2"
          d="M40.43986,67.59947a3.26667,3.26667,0,1,1-3.2666,3.26668,3.2704,3.2704,0,0,1,3.2666-3.26668m0-3a6.26667,6.26667,0,1,0,6.26672,6.26668,6.26665,6.26665,0,0,0-6.26672-6.26668Z"/>
    <path class="cls-2"
          d="M72.27714,67.59947a3.26667,3.26667,0,1,1-3.2666,3.26668,3.2704,3.2704,0,0,1,3.2666-3.26668m0-3a6.26667,6.26667,0,1,0,6.26672,6.26668,6.26665,6.26665,0,0,0-6.26672-6.26668Z"/>
    <path class="cls-2"
          d="M101.2924,67.59947a3.26667,3.26667,0,1,1-3.26672,3.26668,3.2703,3.2703,0,0,1,3.26672-3.26668m0-3a6.26667,6.26667,0,1,0,6.2666,6.26668,6.26675,6.26675,0,0,0-6.2666-6.26668Z"/>
</svg>
