<svg xmlns="http://www.w3.org/2000/svg"><path class="cls-1" d="M26.25821,96.30936h0m89.37.14734,8.91746,8.37913a.20512.20512,0,0,1,.01384.08214H17.17105a.189.189,0,0,1,.01006-.07314l8.92041-8.38813h89.52669m.27015-3H25.83365a2.37841,2.37841,0,0,0-1.63426.67064l-9.0734,8.532c-1.87785,1.76326-.794,5.25865,1.6319,5.25865h108.2173c2.42485,0,3.50869-3.49539,1.63163-5.25865l-9.07657-8.532a2.36609,2.36609,0,0,0-1.63189-.67064Z"/><path class="cls-1" d="M113.70791,36.7226V89.294H27.80315V36.7226h85.90476m.16536-3H27.63782a2.83466,2.83466,0,0,0-2.83467,2.83464V89.45938A2.83464,2.83464,0,0,0,27.63782,92.294h86.23545a2.83464,2.83464,0,0,0,2.83464-2.83464V36.55724a2.83465,2.83465,0,0,0-2.83464-2.83464Z"/></svg>
