<svg id="Ebene_1" data-name="Ebene 1" xmlns="http://www.w3.org/2000/svg" viewBox="0 0 141.73228 141.73228"><defs><style>.cls-1{fill:none;stroke:#3a4145;stroke-linecap:round;stroke-linejoin:round;stroke-width:3px;}</style></defs><path class="cls-1" d="M121.48011,59.66937A28.55078,28.55078,0,0,0,93.9658,39.35965h-.27548c-.0368-.0001-.07268-.00437-.10948-.00437H47.76643A28.55064,28.55064,0,0,0,20.25223,59.6651c-11.29436,37.19886-3.8515,40.54371-1.40254,41.64443a11.77717,11.77717,0,0,0,4.86978,1.0631c.08488,0,.16895-.01047.25363-.0123,6.10417-.13113,11.87613-4.94317,17.49754-9.63962,1.96112-1.63807,3.95214-3.28863,5.97364-4.78052a30.064,30.064,0,0,1,8.44234-4.67348h9.896c.00763.0001.01393.00437.02165.00437H85.84562a30.07269,30.07269,0,0,1,8.44619,4.67643c2.02019,1.49107,4.00988,3.14052,5.96978,4.77747,5.49943,4.5946,11.1432,9.29532,17.101,9.62051.21663.01179.43274.03151.65018.03151a11.77714,11.77714,0,0,0,4.86978-1.0631C125.33161,100.21318,132.77437,96.86833,121.48011,59.66937ZM54.49994,63.24925a.774.774,0,0,1-.774.774H47.95052a.77406.77406,0,0,0-.774.77389v5.77552a.77407.77407,0,0,1-.774.774H41.87482a.774.774,0,0,1-.7739-.774V64.79714a.77407.77407,0,0,0-.7741-.77389H34.5514a.77393.77393,0,0,1-.7739-.774V58.72144a.774.774,0,0,1,.7739-.774h5.77542a.774.774,0,0,0,.7741-.774V51.39812a.77386.77386,0,0,1,.7739-.774h4.52771a.77394.77394,0,0,1,.774.774v5.77532a.774.774,0,0,0,.774.774h5.77542a.774.774,0,0,1,.774.774Zm40.3037,1.03932a3.30323,3.30323,0,1,1,3.30328-3.30328A3.30326,3.30326,0,0,1,94.80364,64.28857Zm7.9244,7.92429a3.30322,3.30322,0,1,1,3.30318-3.30317A3.30329,3.30329,0,0,1,102.728,72.21286Zm0-15.84869a3.30313,3.30313,0,1,1,3.30318-3.30318A3.30317,3.30317,0,0,1,102.728,56.36417Zm7.9243,7.9244a3.30323,3.30323,0,1,1,3.30328-3.30328A3.30312,3.30312,0,0,1,110.65234,64.28857Z"/></svg>