<svg id="Ebene_1" data-name="Ebene 1" xmlns="http://www.w3.org/2000/svg" viewBox="0 0 141.73228 141.73228"><defs><style>.cls-1{fill:none;stroke:#3a4145;stroke-linecap:round;stroke-linejoin:round;stroke-width:3px;}</style></defs><polygon class="cls-1" points="15.181 52.577 20.107 58.671 69.101 119.29 48.844 52.577 15.181 52.577"/><polygon class="cls-1" points="108.652 20.258 108.651 20.258 108.653 20.259 108.652 20.258"/><polygon class="cls-1" points="72.758 119.133 121.626 58.671 126.551 52.577 94.82 52.577 72.758 119.133"/><polygon class="cls-1" points="127.558 51.332 127.559 51.33 127.558 51.33 127.558 51.332"/><polygon class="cls-1" points="107.463 20.258 72.26 20.258 93.922 49.206 107.463 20.258"/><polygon class="cls-1" points="32.424 21.336 14.932 50.083 47.678 50.083 32.424 21.336"/><polygon class="cls-1" points="126.8 50.083 109.324 21.362 95.89 50.083 126.8 50.083"/><polygon class="cls-1" points="127.559 51.33 127.558 51.328 127.558 51.33 127.559 51.33"/><polygon class="cls-1" points="69.523 20.258 34.309 20.258 49.675 49.214 69.523 20.258"/><polygon class="cls-1" points="70.902 22.167 51.767 50.083 91.79 50.083 70.902 22.167"/><path class="cls-1" d="M127.5583,51.33v-.00165l-.75812-1.24546H95.88988L109.32357,21.3621l-.671-1.10264-.00136-.0015h-1.18854L93.92174,49.20612,72.26,20.258H69.52291L49.67536,49.21423,34.30927,20.258H33.08033l-.65615,1.07816L47.67763,50.08289H14.932L14.17323,51.33l1.00757,1.247H48.8444l20.25619,66.7134,1.76585,2.184,1.892-2.3415L94.81953,52.577h31.7318l1.007-1.24547ZM70.90158,22.16738,91.79034,50.08289H51.767Zm.00661,95.81415L51.05,52.577H92.58887Z"/><polygon class="cls-1" points="70.908 121.474 92.589 52.577 51.05 52.577 70.908 121.474"/></svg>