<svg xmlns="http://www.w3.org/2000/svg" viewBox="0 0 141.73228 141.73228">
    <defs>
        <style>.cls-1{fill:none;stroke:#3a4145;stroke-linecap:round;stroke-linejoin:round;stroke-width:3px;}</style>
    </defs>
    <path class="cls-1"
          d="M126.95984,91.1733a40.4145,40.4145,0,0,0-22.71651-11.34258,2.01929,2.01929,0,0,0-.58265,3.99632,36.41121,36.41121,0,0,1,18.92364,8.781,37.22541,37.22541,0,0,1-46.99157,1.68717,41.23069,41.23069,0,0,0,35.90364-40.45317,2.03064,2.03064,0,0,0-.58938-1.43718,1.92232,1.92232,0,0,0-1.47427-.59318A40.45618,40.45618,0,0,0,85.791,59.55439,2.01942,2.01942,0,0,0,88.1641,62.8225a36.4533,36.4533,0,0,1,19.22326-6.90266A37.19729,37.19729,0,0,1,75.28291,90.25611a41.05278,41.05278,0,0,0-3.05224-53.812,2.0504,2.0504,0,0,0-2.87082-.00042A40.4093,40.4093,0,0,0,58.01794,59.15821a2.019,2.019,0,1,0,3.99545.58467,36.4242,36.4242,0,0,1,8.7801-18.92318A36.4108,36.4108,0,0,1,79.85042,65.704a37.05332,37.05332,0,0,1-7.61106,21.89215,41.03609,41.03609,0,0,0-39.96122-35.7751,2.01874,2.01874,0,0,0-2.04893,2.019v3.74746a2.03336,2.03336,0,0,0,.0103.20461,40.661,40.661,0,0,0,7.126,19.153,2.01916,2.01916,0,0,0,3.30859-2.31543,36.62,36.62,0,0,1-6.407-17.14614V55.93725A36.40714,36.40714,0,0,1,58.16237,67.15938,36.94228,36.94228,0,0,1,68.19981,87.9a41.03112,41.03112,0,0,0-53.422,3.139,2.0076,2.0076,0,0,0-.60458,1.43049,2.02813,2.02813,0,0,0,.59162,1.43875l2.64185,2.64118a1.95535,1.95535,0,0,0,.15965.14578,40.76988,40.76988,0,0,0,25.69237,9.12623H43.337a40.6844,40.6844,0,0,0,20.71993-5.67611,2.01932,2.01932,0,0,0-2.061-3.47315,36.64849,36.64849,0,0,1-18.6522,5.11113h-.1033A36.72365,36.72365,0,0,1,20.197,93.62849l-1.09422-1.09332a36.90951,36.90951,0,0,1,50.02407,1.5045l.00678.00665.00038.00051.00045.00036.01163.01147A40.82264,40.82264,0,0,0,98.038,105.8746h.00536A40.8462,40.8462,0,0,0,126.9603,94.04345a2.01859,2.01859,0,0,0-.00046-2.87015Z"/>
</svg>
