<svg id="Ebene_1" data-name="Ebene 1" xmlns="http://www.w3.org/2000/svg" viewBox="0 0 141.73228 141.73228"><defs><style>.cls-1{fill:#3a4145;}</style></defs><path class="cls-1" d="M97.61231,24.60846l.17541.07141c4.53668,5.0972,8.64987,5.92163,10.77808,5.93817l.0191.0181c2.66925,6.13739,6.28742,8.30447,8.54419,9.06967.67392,6.50833,3.44748,9.73825,5.36481,11.22351a17.9613,17.9613,0,0,0-.04617,8.73865h-35.354l-.07162-34.63242a16.5236,16.5236,0,0,0,4.70781.68652,15.936,15.936,0,0,0,5.88234-1.11361m-13.59973-4.2088L84.1,62.668h43.45906s-4.11288-3.09473-2.02233-11.57257l-.10465-1.857s-4.7529-1.87942-5.38452-10.58832l-.78833-1.52676s-4.86243-.14526-8.1543-8.23276l-1.4602-1.38177a3.85058,3.85058,0,0,1-1.01276.10955c-1.62115,0-5.02884-.68151-9.04788-5.44619l-2.05438-.83637A12.13368,12.13368,0,0,1,91.73,22.72207a14.46857,14.46857,0,0,1-7.71739-2.32241Z"/><path class="cls-1" d="M44.05059,66.71033a2.99262,2.99262,0,0,0,1.17248.23825h78.19408a39.297,39.297,0,0,1-4.7424,8.47949C113.076,83.05282,102.00562,92.286,81.0607,92.97262c-.6326.02076-1.25087.03086-1.86311.03086-12.29971,0-21.87424-4.072-28.45763-12.103a33.18892,33.18892,0,0,1-6.56842-13.03067c-.01739-.21295-.05383-.6106-.121-1.15951m-26.05321-30.141q-.81906,0-1.656.04364a2.28737,2.28737,0,0,0,.11708,4.57163h.00016c.04011,0,.08064-.001.12114-.00317q.71694-.03741,1.41623-.03742c8.63455,0,15.10691,4.28268,19.25434,12.74808a43.49993,43.49993,0,0,1,3.94045,14.34445c.03561.54471,5.546,27.76694,38.00674,27.76694.64458,0,1.2955-.01062,1.96149-.03247,21.86191-.71668,33.70013-10.27787,39.93381-18.76737a38.42521,38.42521,0,0,0,6.46618-13.25506h-82.336a46.92909,46.92909,0,0,0-3.80415-11.94532C36.50418,41.87878,28.42824,36.56982,17.99738,36.56933ZM127.55905,63.94858h0Z"/><path class="cls-1" d="M63.2526,95.71191a13.20632,13.20632,0,1,0,13.20633,13.2063A13.20637,13.20637,0,0,0,63.2526,95.71191Zm0,21.77774a8.57143,8.57143,0,1,1,8.57142-8.57144,8.57141,8.57141,0,0,1-8.57142,8.57144Z"/><path class="cls-1" d="M94.87165,95.71191a13.20632,13.20632,0,1,0,13.20632,13.2063,13.20637,13.20637,0,0,0-13.20632-13.2063Zm0,21.77774a8.57143,8.57143,0,1,1,8.57141-8.57144,8.57141,8.57141,0,0,1-8.57141,8.57144Z"/></svg>