<svg id="Ebene_1" data-name="Ebene 1" xmlns="http://www.w3.org/2000/svg" viewBox="0 0 141.73228 141.73228"><defs><style>.cls-1{fill:none;stroke:#3a4145;stroke-linecap:round;stroke-linejoin:round;stroke-width:3px;fill-rule:evenodd;}</style></defs><path class="cls-1" d="M126.86864,79.28988c.21514-12.792-.18629-16.40207-10.55782-24.5835,3.3922-.1571,13.58669,1.0692,10.33233-5.36578-.9804-1.94253-7.21466-4.37556-9.51858-1.68737-4.67542,5.454-4.16614-.412-8.43036-6.55314-4.94993-9.92762-6.195-9.7607-21.75178-9.5943-5.12693-.235-10.66565-.43111-15.7825-.44117-5.31293-.01932-25.80054.6182-30.22163,1.64818-4.323.08847-9.99871,11.2713-12.008,15.23455-3.15663,6.2-2.57845-1.079-6.8617-1.393-2.24512-.15686-5.686.82435-6.75441,2.38373-4.47989,6.54362,6.8911,5.62123,10.08694,5.76827-2.06836,1.756-9.96929,10.04529-10.43988,12.00718-.53893,2.19718-.52943,19.71771-.57818,23.48491-.07869,5.44394-1.34313,18.285,3.411,20.03118,1.36275.50055,8.9693.55013,10.61635.18737,3.92131-.86439,3.07818-4.445,3.25466-8.69178,13.792-.96245,64.64886-.96245,78.38263,0,.16665,3.95318-.6182,7.50386,2.80338,8.58339,1.65631.51961,9.597.4608,11.06705-.079C129.80984,108.07168,126.75154,86.608,126.86864,79.28988ZM36.3128,43.90874c3.06761-5.45829,3.04006-6.99672,6.96016-7.5156,10.71364-1.399,45.92222-1.62175,56.27541.06483,2.80754.46333,2.84513,1.28835,4.15158,3.4195l7.10845,13.77062C97.64817,53.546,84.25624,52.10992,70.85452,52.1282c-12.938.00924-27.00685,1.7329-39.37945,1.51989A79.20335,79.20335,0,0,1,36.3128,43.90874Zm3.97932,38.78581c-4.67667,1.091-24.01865,1.85068-20.60032-7.81858,4.96541-.14363,20.73891,2.6657,24.77228,5.12964A7.61966,7.61966,0,0,1,40.29212,82.69455Zm51.6179-4.404-.98491,5.03108c-.65918,3.36718-2.66435,5.66986-4.93733,5.66986H55.46551c-2.273,0-4.27814-2.30268-4.93733-5.66986l-.98491-5.03108c-.6693-3.4189.98365-6.86781,3.29156-6.86781H88.61847C90.92637,71.42274,92.57933,74.87165,91.91,78.29055Zm9.51193,4.5382a7.70244,7.70244,0,0,1-4.16146-2.84624c4.04657-2.50233,19.84026-5.205,24.80827-4.98919C125.44437,85.07224,106.09673,84.02364,101.422,82.82875Z"/></svg>