<svg id="Ebene_1" data-name="Ebene 1" xmlns="http://www.w3.org/2000/svg" viewBox="0 0 141.73228 141.73228"><defs><style>.cls-1{fill:none;stroke:#3a4145;stroke-linecap:round;stroke-linejoin:round;stroke-width:3px;}</style></defs><path class="cls-1" d="M54.16469,18.12967V41.55178c0,6.28085-7.08352,5.71258-7.08352.57022V24.84087c0-3.99983-1.1285-10.66764-3.08832-10.66764-1.961,0-3.08935,6.66781-3.08935,10.66764V42.122c0,5.14236-7.08362,5.71063-7.08362-.57022V18.12967C28.2,20.41522,27.7057,36.78493,27.7057,48.08929c0,11.82027,6.59637,16.31233,12.36029,16.31233,0,0-5.05628,34.59607-5.05628,46.59249,0,11.99632,4.21372,16.56495,8.98314,16.56495,4.76932,0,8.982-4.56863,8.982-16.56495,0-11.99642-5.05525-46.59249-5.05525-46.59249,5.76391,0,12.35936-4.49206,12.35936-16.31233C60.279,36.78493,59.78574,20.41522,54.16469,18.12967Z"/><path class="cls-1" d="M114.0224,39.611c-.1741-13.12585-9.83066-25.43779-17.6954-25.43779-7.86465,0-17.5212,12.31194-17.69633,25.43779-.28089,21.069,13.7706,19.52689,13.7706,24.7906,0,0-5.05732,34.59607-5.05732,46.59249,0,11.99632,4.21476,16.56495,8.983,16.56495,4.76941,0,8.98314-4.56863,8.98314-16.56495,0-11.99642-5.05629-46.59249-5.05629-46.59249C100.25385,59.13791,114.30431,60.68006,114.0224,39.611Z"/></svg>