<svg xmlns="http://www.w3.org/2000/svg" viewBox="0 0 141.73228 141.73228">
    <defs>
        <style>.cls-1{fill:#3a4145;}</style>
    </defs>
    <path class="cls-1"
          d="M97.89225,25.03723A26.67628,26.67628,0,0,1,122.98358,60.7453a25.57,25.57,0,0,1-1.556,3.45111h-37.68A3,3,0,0,0,81.065,65.85354l-4.88906,9.76691L66.24107,41.95a3,3,0,0,0-2.67673-2.14429q-.10131-.00676-.20161-.00674a3.00029,3.00029,0,0,0-2.73735,1.77463L50.513,64.1712H20.29839a25.724,25.724,0,0,1-1.612-3.61734A26.664,26.664,0,0,1,68.13623,40.72137a2.99988,2.99988,0,0,0,2.73126,1.75894h.00032A3,3,0,0,0,73.599,40.72079,26.75348,26.75348,0,0,1,97.89225,25.03723m0-3A29.70256,29.70256,0,0,0,70.86749,39.48031,29.65748,29.65748,0,1,0,18.56684,67.1712H52.45717L63.36371,42.799,75.45216,83.76837l8.29548-16.572h39.40772a29.0131,29.0131,0,0,0,4.40369-15.48889,29.70322,29.70322,0,0,0-29.6668-29.67029Z"/>
    <path class="cls-1"
          d="M61.94275,63.98172l9.58353,32.46637A3,3,0,0,0,74.1382,98.587q.13383.01186.26632.01181a3.00026,3.00026,0,0,0,2.68162-1.657L88.29276,74.5567h24.42369L70.938,116.05881l-41.803-41.52768H55.27864a3,3,0,0,0,2.73842-1.77485l3.92569-8.77456m.57811-8.63819-7.24222,16.1876H21.822a29.58927,29.58927,0,0,0,2.8548,2.79977L69.92584,119.282a1.44659,1.44659,0,0,0,2.02436,0L118.8873,72.6553,118.885,72.646c.33868-.34607.64558-.72775.97305-1.08929H86.4397l-12.03616,24.042L62.52086,55.34353ZM119.858,71.5567h0Z"/>
</svg>
