<svg id="Ebene_1" data-name="Ebene 1" xmlns="http://www.w3.org/2000/svg" viewBox="0 0 141.73228 141.73228"><defs><style>.cls-1{fill:#3a4145;}</style></defs><path class="cls-1" d="M49.39354,18.4748,55.06543,43.965H52.02892q-.13469,0-.26894.01208a5.3509,5.3509,0,0,0-4.0147,2.49988c-.6777,1.14148-1.21768,3.11939.05846,6.05994C49.582,56.6352,69.70454,97.582,70.57408,99.35077a5.57692,5.57692,0,0,0,4.8255,3.136,5.964,5.964,0,0,0,3.96126-1.65143A19.66214,19.66214,0,0,0,81.6676,98.4184L99.297,118.429c-1.59106,2.30054-4.84036,6.13007-8.83444,6.13007a7.88765,7.88765,0,0,1-3.92354-1.1626c-12.4312-7.163-21.1893-14.95191-30.23016-26.88495-9.34919-12.33161-16.46273-33.002-18.40938-46.19055-2.47023-16.71674-1.42735-24.24427-1.19284-25.58564.55563-3.19165,7.17354-5.41308,12.687-6.26049M51.734,15.181s-16.63179,1.27838-17.983,9.0398c-.42324,2.42084-1.18875,10.50451,1.18062,26.53869,2.01246,13.63447,9.25914,34.734,18.98651,47.56446,8.86924,11.70648,17.64207,19.90393,31.123,27.67187a10.77033,10.77033,0,0,0,5.42131,1.56324c7.66278,0,12.55762-9.4422,12.55762-9.4422l-21.71141-24.644a17.22228,17.22228,0,0,1-3.92962,5.11023,3.04817,3.04817,0,0,1-1.97952.90369,2.73077,2.73077,0,0,1-2.14693-1.487s-20.92642-42.57684-22.6968-46.657c-1.77307-4.08557,1.47307-4.37775,1.47307-4.37775h6.77743L51.734,15.181Z"/><path class="cls-1" d="M58.1071,17.25721a4.59466,4.59466,0,0,1,1.08148.24755c.79521,2.804,3.49053,16.0196,5.08049,24.089.04607.22358-.20106.556-.62388.91529L58.1071,17.25721m-1.45117-3.084a18.74221,18.74221,0,0,0-2.26688.135L61.55778,46.9953s6.46035-2.07067,5.64962-6.00677c0,0-4.32222-21.93756-5.27133-24.75531-.58233-1.72492-3.276-2.06-5.28014-2.06Z"/><path class="cls-1" d="M89.39494,92.18958a1.65409,1.65409,0,0,1,.2089.0116c2.56933,2.90216,15.55377,17.51245,15.55322,17.51184a.81758.81758,0,0,1,.2832.69,2.88974,2.88974,0,0,1-.469,1.17181L88.14148,92.38648a5.05708,5.05708,0,0,1,1.25346-.1969m0-3c-2.71933,0-6.23,2.07257-6.23,2.07257l21.75394,24.80267s5.84268-4.547,2.48443-8.34039c0,0-13.41894-15.09918-15.67187-17.64587a2.98259,2.98259,0,0,0-2.33649-.889Z"/></svg>