<svg id="Ebene_1" data-name="Ebene 1" xmlns="http://www.w3.org/2000/svg" viewBox="0 0 141.73228 141.73228"><defs><style>.cls-1{fill:#3a4145;}</style></defs><path class="cls-1" d="M103.68774,17.84441,110.942,30.11527H122.6261v78.03107h4.933v10.63028H91.0611v5.11123H50.67127v-5.11123h-36.498V108.14634h4.93317V30.11527H30.79047l7.25439-12.27086h65.64288M67.90418,30.0579l2.962-1.55834,2.96332,1.55834-.56628-3.29938,2.39642-2.33574L72.3468,23.941,70.86621,20.9399,69.38483,23.941l-3.31153.48175,2.39649,2.33574-.56561,3.29938m16.53125-.00068,2.962-1.557,2.96247,1.557-.56482-3.298,2.39575-2.33644-3.31153-.48106-1.48187-3.00118-1.48138,3.00118-3.31079.48106,2.39642,2.33644-.56628,3.298m-33.06366,0,2.964-1.557,2.96185,1.557-.5669-3.2987,2.39771-2.33638-3.31268-.48042-1.48-3.00118-1.48139,3.00118-3.31348.48042,2.39771,2.33638-.56683,3.2987M90.65021,56.89945h19.186V40.19956h-19.186V56.89945m-29.96619,0H79.86871V40.19956H60.684V56.89945m-29.96612,0H49.90326V40.19956H30.7179V56.89945M90.65021,82.30887h19.186V65.61036h-19.186V82.30887m-59.93231,0H49.90326V65.61036H30.7179V82.30887m59.933,25.09445h19.18457V90.70472H90.65088v16.6986m-59.933,0H49.90326V90.70472H30.7179v16.6986m72.96984-92.55891H38.04486a3.00009,3.00009,0,0,0-2.58246,1.47328L29.079,27.11527H19.10639a3,3,0,0,0-3,3v75.03107H14.17322a3,3,0,0,0-3,3v10.63028a3,3,0,0,0,3,3H47.67127v2.11123a3,3,0,0,0,3,3H91.0611a3,3,0,0,0,3-3v-2.11123h33.498a3,3,0,0,0,3-3V108.14634a3,3,0,0,0-3-3h-1.933V30.11527a3,3,0,0,0-3-3h-9.97253l-6.38331-10.79758a3.00017,3.00017,0,0,0-2.58252-1.47328ZM93.65021,43.19956h13.186V53.89945h-13.186V43.19956Zm-29.96619,0H76.86871V53.89945H63.684V43.19956Zm-29.96612,0H46.90326V53.89945H33.7179V43.19956Zm59.93231,25.4108h13.186V79.30887h-13.186V68.61036Zm-59.93231,0H46.90326V79.30887H33.7179V68.61036Zm59.933,25.09436h13.18457v10.6986H93.65088V93.70472Zm-59.933,0H46.90326v10.6986H33.7179V93.70472Z"/></svg>