<svg id="Ebene_1" data-name="Ebene 1" xmlns="http://www.w3.org/2000/svg" viewBox="0 0 141.73228 141.73228"><defs><style>.cls-1{fill:#3a4145;}</style></defs><path class="cls-1" d="M105.26066,17.17322A11.09634,11.09634,0,0,1,116.3394,28.26209v85.22565A11.08755,11.08755,0,0,1,105.26066,124.559H36.46447a11.084,11.084,0,0,1-11.07159-11.07129V28.26209A11.09278,11.09278,0,0,1,36.46447,17.17322h68.79619M43.49431,118.13886H98.23649a12.388,12.388,0,0,0,12.36895-12.37909V35.98383A12.3909,12.3909,0,0,0,98.23649,23.59906H43.49431A12.39654,12.39654,0,0,0,31.11405,35.98383v69.77594a12.39368,12.39368,0,0,0,12.38026,12.37909M105.26066,14.17322H36.46447A14.12984,14.12984,0,0,0,22.39288,28.26209v85.22565A14.1186,14.1186,0,0,0,36.46447,127.559h68.79619a14.11991,14.11991,0,0,0,14.07874-14.07129V28.26209a14.13114,14.13114,0,0,0-14.07874-14.08887ZM43.49431,115.13886a9.40409,9.40409,0,0,1-9.38026-9.37909V35.98383a9.40915,9.40915,0,0,1,9.38026-9.38477H98.23649a9.39755,9.39755,0,0,1,9.36895,9.38477v69.77594a9.39249,9.39249,0,0,1-9.36895,9.37909Z"/><path class="cls-1" d="M94.13283,67.60962a1.71445,1.71445,0,0,1,1.691,1.69251V73.6106a1.71141,1.71141,0,0,1-1.691,1.68652h-46.523a1.69581,1.69581,0,0,1-1.70114-1.68652V69.30213a1.71958,1.71958,0,0,1,1.70114-1.69251h46.523m0-3h-46.523a4.71432,4.71432,0,0,0-4.70114,4.69251V73.6106a4.70556,4.70556,0,0,0,4.70114,4.68652h46.523a4.70168,4.70168,0,0,0,4.691-4.68652V69.30213a4.71046,4.71046,0,0,0-4.691-4.69251Z"/><path class="cls-1" d="M94.13283,46.50818a1.69371,1.69371,0,0,1,1.691,1.69251v4.2912a1.69353,1.69353,0,0,1-1.691,1.6922h-46.523a1.6986,1.6986,0,0,1-1.70114-1.6922v-4.2912a1.69878,1.69878,0,0,1,1.70114-1.69251h46.523m0-3h-46.523a4.70316,4.70316,0,0,0-4.70114,4.69251v4.2912a4.70675,4.70675,0,0,0,4.70114,4.6922h46.523a4.70289,4.70289,0,0,0,4.691-4.6922v-4.2912a4.69929,4.69929,0,0,0-4.691-4.69251Z"/><path class="cls-1" d="M94.13283,88.73993a1.7028,1.7028,0,0,1,1.691,1.66931V94.718a1.71431,1.71431,0,0,1-1.691,1.69226h-46.523A1.71945,1.71945,0,0,1,45.90872,94.718V90.40924a1.708,1.708,0,0,1,1.70114-1.66931h46.523m0-3h-46.523a4.69833,4.69833,0,0,0-4.70114,4.66931V94.718a4.71043,4.71043,0,0,0,4.70114,4.69226h46.523a4.70657,4.70657,0,0,0,4.691-4.69226V90.40924a4.69443,4.69443,0,0,0-4.691-4.66931Z"/></svg>