<svg xmlns="http://www.w3.org/2000/svg" viewBox="0 0 141.73228 141.73228">
    <defs>
        <style>
            .cls-1{fill:#3a4145;}.cls-2{fill:none;stroke:#3a4145;stroke-linecap:round;stroke-linejoin:round;stroke-width:3px;}
        </style>
    </defs>
    <path class="cls-1"
          d="M96.36774,20.81905c1.17432,3.74882,1.35571,8.03154.38355,10.14072L77.84186,69.11626l-2.87207-5.1871L96.36774,20.81905m-.05054-6.64581L71.58271,64.00532l6.40637,11.57,21.46643-43.3162c2.062-4.39486.47754-13.60834-3.13831-18.08589Z"/>
    <path class="cls-2"
          d="M101.91,97.48959c-6.3553-5.24319-13.2629-3.22225-16.89905,2.39716l-40.80452-85.649c-3.40208,3.33258-5.21157,12.05134-3.90706,15.30415C41.60266,32.79677,64.98075,80.976,64.98075,80.976l6.60193,7.16093S84.184,115.41994,86.0293,119.42121A15.69419,15.69419,0,0,0,95.481,127.2793c7.95127,1.63258,12.10452-4.133,12.8804-10.72254C109.21918,109.28446,107.80852,102.35153,101.91,97.48959ZM69.15579,78.32422A1.75119,1.75119,0,1,1,70.909,76.57,1.757,1.757,0,0,1,69.15579,78.32422Zm31.52949,43.80087c-3.6372,1.46593-8.7577.326-11.37364-5.86269-3.69854-8.74953-.8883-15.21434,2.74679-16.68739,3.63636-1.45462,8.54918,1.932,11.06,8.17192C105.63516,113.9919,104.31955,120.66313,100.68528,122.12509Z"/>
    <path class="cls-1"
          d="M65.87189,89.95016l1.09876,1.29728c-2.16761,4.37242-4.62769,9.19506-7.01648,13.87774-.74268,1.45593-1.47339,2.88821-2.1814,4.27978a14.5693,14.5693,0,0,0-.97143-6.98946q-.04944-.11853-.1012-.23569a2.99723,2.99723,0,0,0,.68494.0793c.07263,0,.14575-.00264.21887-.008a2.99987,2.99987,0,0,0,2.416-1.55708l5.85193-10.74389m-.5404-5.27984-7.946,14.58877c-2.21741-2.95029-5.3291-5.14919-9.42431-5.16028l-.01417,0c-5.2622-.0004-9.9519,4.5398-12.55639,10.47089-3.6648,8.33752-2.69483,15.41784,1.76745,19.77775a10.30285,10.30285,0,0,0,7.28492,2.93214,13.06761,13.06761,0,0,0,11.50915-7.56714c3.80908-7.75991,10.02747-19.63036,14.57959-28.90224l-5.20019-6.13988Zm-21.6709,37.54351a6.4089,6.4089,0,0,1-2.40943-.44654c-3.63427-1.45881-4.9375-8.13423-2.43408-14.36392,2.11951-5.27085,5.9513-8.51124,9.28125-8.51127a4.72582,4.72582,0,0,1,1.78259.3404c3.63538,1.45672,7.06592,6.935,3.37159,15.67744-2.09009,4.94187-6.17871,7.30389-9.59192,7.30389Z"/>
</svg>
