<svg xmlns="http://www.w3.org/2000/svg" viewBox="0 0 141.73228 141.73228">
    <defs>
        <style>.cls-1{fill:#3a4145;}</style>
    </defs>
    <path class="cls-1"
          d="M57.62655,18.64059c1.54652,6.90244,7.36631,12.04819,14.28916,12.04819A14.87035,14.87035,0,0,0,85.94585,19.65252c3.01436,1.20951,6.07842,2.12482,9.05675,3.01453.99363.29682,1.98791.59378,2.98222.90222q.74034.22906,1.42665.43695a28.67469,28.67469,0,0,1,6.35715,2.42524,13.83935,13.83935,0,0,1,4.1263,4.06182l.03459.04743c2.76774,3.72,4.93748,6.91846,7.25505,10.69482l.02706.04325,1.561,2.4461L120.095,45.7966a3.00058,3.00058,0,0,0,.17984.25226,32.90026,32.90026,0,0,1,3.20155,4.53122q-.82344.68155-1.648,1.36319c-.657.44635-1.68157,1.17215-2.95755,2.07608-2.05444,1.45538-4.61124,3.26666-6.9367,4.83453-1.65932,1.119-2.782,1.82849-3.52993,2.27649-.92141-.97958-2.05014-2.22778-2.36979-2.60364-.19835-.23154-.60648-.84579-.96656-1.38775-1.47237-2.21595-2.86305-4.309-4.91692-4.72376a3.57868,3.57868,0,0,0-4.01784,2.12271,20.47608,20.47608,0,0,0-1.22946,4.70423c-.07633.42059-.14676.81137-.22272,1.17456l-.27052,1.36166a80.79841,80.79841,0,0,0-1.56452,10.05847c-.738,9.47312.923,19.57788,2.52931,29.35a188.77333,188.77333,0,0,1,2.58741,20.242l-1.7234.7226c-6.53257,1.44265-18.18675,2.40759-29.14684,2.40759-12.58855,0-22.72622-1.23413-27.81137-3.385-.15594-.06613-.31108-.12891-.46387-.18964.84414-3.78369,1.406-7.6965,1.95139-11.49392A127.302,127.302,0,0,1,43.01958,96.829c3.29161-13.11444,3.01452-18.38281,2.4625-28.87885-.09213-1.75171-.19272-3.66363-.28726-5.799q-.00323-.073-.01-.14572c-.03325-.357-.0573-.77777-.08372-1.22656-.16664-2.83051-.33895-5.75736-2.42019-7.11161a3.20648,3.20648,0,0,0-1.75707-.51828c-1.86654,0-3.37858,1.39762-7.57048,5.721-.33572.34629-.67563.69684-.99157,1.01895a53.1542,53.1542,0,0,1-14.03307-9.785c.369-.5629.75641-1.161,1.17189-1.80911l.9605-1.49945c1.62057-2.532,3.15126-4.92356,4.78382-7.31336.68407-1.00146,1.34453-1.99392,1.99851-2.97677a82.81559,82.81559,0,0,1,6.53947-8.941c1.44057-1.63669,2.36116-1.89948,4.82148-2.60187.31167-.089.63768-.18207.97769-.28186l.73685-.21518c2.83146-.82639,6.70928-1.95819,10.4752-3.23035,2.75133-.92868,5.01417-1.78744,6.83245-2.59439m2.53524-4.46736c-.37193,0-.56552.08553-1.25375.48077a55.83121,55.83121,0,0,1-9.07338,3.73855c-4.047,1.36709-8.27849,2.58508-11.0946,3.40856-3.23553.94935-4.953,1.21781-7.20911,3.781-3.389,3.87228-5.86059,7.95834-8.76328,12.20776-1.98511,2.90589-3.83952,5.84186-5.792,8.88483-.81949,1.27832-1.65047,2.55081-2.51073,3.81442,4.9398,5.13742,11.93028,10.43247,18.5712,12.92359,1.57084-1.33567,6.76119-7.26374,7.8877-7.26374a.21179.21179,0,0,1,.11815.031c1.02357.666.97943,4.21182,1.15578,6.10382.6645,15.00766,1.62437,19.02439-2.08791,33.81488-2.0652,8.22852-2.5092,17.27432-4.52039,25.5167-.34285,1.41708,1.05132,1.69775,2.52054,2.32061,6.17665,2.61261,17.52693,3.623,28.98233,3.623,11.71846,0,23.54695-1.05722,30.06191-2.53824q1.94433-.81673,3.89015-1.63089c-.47341-17.11917-6.46622-35.16312-5.20761-51.32007a91.17347,91.17347,0,0,1,1.78752-11.07321,29.29216,29.29216,0,0,1,1.2245-5.184c.15535-.32816.35334-.47.58268-.47a.624.624,0,0,1,.12411.013c1.22435.24725,3.19491,3.949,4.20043,5.12286a52.49156,52.49156,0,0,0,4.09429,4.28369,33.53959,33.53959,0,0,0,5.7611-3.42093c3.88381-2.61853,8.44818-5.93832,10.017-6.99365q1.82194-1.506,3.63891-3.012a33.1939,33.1939,0,0,0-4.64294-7.15195q-1.4398-2.25778-2.883-4.51721c-2.43246-3.96356-4.62972-7.18622-7.40505-10.91641a16.64365,16.64365,0,0,0-5.02154-4.88932c-2.28218-1.3706-4.87128-2.05215-8.44333-3.15731a119.94315,119.94315,0,0,1-13.38648-4.50083q-.67326-.67451-1.35-1.35a1.452,1.452,0,0,0-.5453-.29225c.00335.1413.01973.27835.01973.41962,0,7.01889-5.23554,12.709-11.69373,12.709-6.458,0-11.69189-5.69006-11.69189-12.709,0-.271.02288-.53711.03593-.80492-.03417-.00107-.0667-.00168-.098-.00168Z"/>
</svg>
