<svg xmlns="http://www.w3.org/2000/svg" viewBox="0 0 315.2 103.05882">
    <defs>
        <style>.wutweioruiwopuropewu{fill:none;}.opiepiqoweioeiqo{fill:#ffffff;}.ztuzireztuierwztuiewqowurowq{clip-path:url(#clip-path);}</style>
        <clipPath id="clip-path">
            <path class="wutweioruiwopuropewu"
                  d="M108.76078,47.48618h-.51956a6.44085,6.44085,0,0,1-4.326-1.732,9.89484,9.89484,0,0,0-6.7997-2.53386c-5.98184,0-10.31986,4.52247-10.31986,10.75285,0,6.26247,4.338,10.809,10.31986,10.809a9.78146,9.78146,0,0,0,7.45722-3.15127,3.57514,3.57514,0,0,1,2.64212-1.17072h1.75341a13.20786,13.20786,0,0,0-.20748-12.974Z"/>
        </clipPath>
    </defs>
    <g>
        <path class="opiepiqoweioeiqo"
              d="M26.83644,69.99731c-9.17308,0-15.89787-6.78909-15.89787-16.08161,0-9.2328,6.72479-16.08161,15.89787-16.08161,7.7675,0,13.57589,4.768,15.287,11.74082H36.8662a10.37754,10.37754,0,0,0-10.02976-6.97284c-6.35961,0-10.88414,4.8323-10.88414,11.31363,0,6.541,4.52453,11.37334,10.88414,11.37334A10.32332,10.32332,0,0,0,36.8662,58.38052h5.19747C40.35032,65.289,34.60394,69.99731,26.83644,69.99731Z"/>
        <path class="opiepiqoweioeiqo"
              d="M45.05859,53.9157c0-9.29711,6.84881-16.08161,16.20563-16.08161,9.35453,0,16.20334,6.7845,16.20334,16.08161,0,9.35682-6.84881,16.08161-16.20334,16.08161C51.9074,69.99731,45.05859,63.27252,45.05859,53.9157Zm27.39524,0a11.19142,11.19142,0,1,0-22.38151,0c0,6.541,4.70827,11.37334,11.1919,11.37334C67.74556,65.289,72.45383,60.45675,72.45383,53.9157Z"/>
        <path class="opiepiqoweioeiqo"
              d="M118.06891,21.68817h4.892V69.38638h-4.892Zm8.07067,31.736c0-1.28156.42948-2.13594,2.446-4.033L140.20467,38.445h6.17587L132.31545,51.71545a1.75252,1.75252,0,0,0,0,2.9352l14.676,14.73573h-6.60306L128.52586,57.52155C126.62878,55.56474,126.13958,54.58634,126.13958,53.4242Z"/>
        <path class="opiepiqoweioeiqo"
              d="M147.05118,53.9157c0-9.2328,6.90852-16.08161,16.26535-16.08161,9.29481,0,16.08161,6.7845,16.08161,15.89787V69.38638h-4.64626V63.516a14.40906,14.40906,0,0,1-11.86254,6.48133C153.838,69.99731,147.05118,63.20822,147.05118,53.9157Zm16.20334-11.31363A10.92686,10.92686,0,0,0,152.06491,53.9157c0,6.541,4.70827,11.37334,11.18961,11.37334,6.42162,0,11.12988-4.83229,11.12988-11.37334A10.91311,10.91311,0,0,0,163.25452,42.60207Z"/>
        <path class="opiepiqoweioeiqo"
              d="M186.24465,26.33673a3.55023,3.55023,0,0,1,3.54843-3.54613,3.57611,3.57611,0,1,1,0,7.152A3.56345,3.56345,0,0,1,186.24465,26.33673ZM192.23678,38.445V69.38638h-4.892V38.445Z"/>
        <path class="opiepiqoweioeiqo"
              d="M215.6587,83.45148c-7.58146,0-13.57589-4.15706-15.5327-11.25392h5.3215a10.49591,10.49591,0,0,0,10.2112,6.66508c6.05414,0,10.57867-3.91361,10.57867-10.21121V63.82374a13.62677,13.62677,0,0,1-11.55707,5.8704c-9.2328,0-15.89788-6.54564-15.89788-15.77844,0-9.35682,6.72479-16.08161,16.14363-16.08161,9.41653,0,16.20333,6.72479,16.20333,16.0219V68.65143C231.12938,77.76481,224.52632,83.45148,215.6587,83.45148Zm-.67294-40.84941c-6.60306,0-11.1896,4.77258-11.1896,11.31363,0,6.60536,4.64625,11.37334,11.25161,11.37334,6.54335,0,11.12989-4.768,11.12989-11.37334C226.17766,47.37465,221.52911,42.60207,214.98576,42.60207Z"/>
        <path class="opiepiqoweioeiqo"
              d="M252.65191,37.83409c8.37842,0,14.55429,5.50293,14.55429,15.10321V69.38638h-4.892V52.997c0-6.7845-4.09734-10.39494-9.66229-10.39494s-9.66228,3.61044-9.66228,10.39494V69.38638h-4.892V52.9373C238.09762,43.337,244.27579,37.83409,252.65191,37.83409Z"/>
        <path class="opiepiqoweioeiqo"
              d="M288.79075,69.99731c-9.41654,0-16.08161-6.60536-16.08161-16.08161,0-9.41654,6.91082-16.08161,16.26534-16.08161,8.80562,0,15.28695,5.98984,15.28695,14.552a13.892,13.892,0,0,1-.30546,3.05922H279.92542c-1.28386,0-1.9568.55122-1.9568,1.64905,0,3.79417,4.4028,8.50244,10.94615,8.50244,4.15706,0,8.13267-1.71335,10.02746-5.32379h4.954C301.51,66.81865,295.57984,69.99731,288.79075,69.99731ZM277.78488,51.40769h20.11924c.85438,0,1.40559-.42719,1.40559-1.28157,0-3.67016-4.03533-7.95123-10.27321-7.95123C282.86062,42.17489,278.45782,45.78073,277.78488,51.40769Z"/>
        <path class="opiepiqoweioeiqo"
              d="M107.21338,61.06007a2.97309,2.97309,0,0,0-2.19669.97747,10.44037,10.44037,0,0,1-7.90081,3.34732c-6.38154,0-10.92211-4.84753-10.92211-11.41309,0-6.50409,4.54057-11.35162,10.92211-11.35162A10.49383,10.49383,0,0,1,104.32006,45.31a5.83488,5.83488,0,0,0,3.92282,1.57348l2.92631,0a.22992.22992,0,0,0,.20871-.32507,15.21855,15.21855,0,0,0-14.262-8.7243c-9.20408,0-15.95366,6.87232-15.95366,16.13768,0,9.32662,6.74958,16.13767,15.95366,16.13767,6.63557,0,11.80128-3.42687,14.25032-8.72534a.23.23,0,0,0-.20921-.324Z"/>
        <g class="ztuzireztuierwztuiewqowurowq">
            <path d="M92.672,55.58922c-.05117-.04693-.09453-.11471-.15483-.13732-.30086-.11281-.60486-.21769-.91011-.31824q-2.05116-.67564-4.10365-1.34738l.21831.45858c-.05575.02183-.11957.073-.16582.06029-.18729-.05148-.36762-.12766-.55367-.1845a3.16415,3.16415,0,0,0-.32883-.06385l.04238-.17491c-.0326.014-.06739.044-.09754.03991a3.48561,3.48561,0,0,1-.8403-.31212,3.97585,3.97585,0,0,1-.83978-.28494l.30469.02305a4.76269,4.76269,0,0,0-.6483-.33872.12042.12042,0,0,1-.06311-.07077c-.017-.08756-.02281-.17729-.03294-.26617.213.06468.213.06468.26812-.13608.16288-.59268.16288-.59268-.47632-.76353-.64-.17107-.64-.17107-.80912.47214a.24144.24144,0,0,0-.01727.078c.00288.03027.01267.0799.03071.0856.17029.05381.34153.10627.51545.14636.12249.02826.21974.03766.15592.21556-.12331.34371-.22285.69592-.33224,1.0446l.43712-1.04218.05651.02222c-.08555.28807-.164.57849-.25827.86369-.15788.47769-.32374.95281-.49139,1.4272a1.06242,1.06242,0,0,1-.137.24813.85434.85434,0,0,1-.14374-.06861A1.12667,1.12667,0,0,1,82.935,55.36c-.52438-.047-1.04666-.11748-1.56969-.17947q-1.41156-.16727-2.82323-.334c-.12722-.01495-.17163-.06282-.12051-.19584.08158-.21238.14709-.43093.21938-.64688l-.08174-.03172c-.06213.16447-.13319.3262-.18421.494-.0715.23526-.17435.37026-.45946.2855-.23083-.06864-.26617-.10746-.168-.33689.10508-.24547.19357-.49808.299-.74342a1.548,1.548,0,0,1,.17337-.29458c.22352-.30749.45318-.61056.67909-.91632a.40264.40264,0,0,0,.0288-.07488c.10965-.243.21182-.49.33486-.72607.0366-.07021.13356-.10809.20058-.16354.0589-.04874.1713-.12548.16173-.14792-.03659-.08577-.09842-.19679-.17646-.22347-1.15083-.39326-2.30684-.77138-3.45877-1.16147-.206-.06974-.31007-.03171-.37445.18657a5.8892,5.8892,0,0,1-.277.69792c-.01921.04361-.088.06534-.13393.09715-.0026-.05129-.005-.10261-.00781-.1539-.00166-.0301-.004-.06015-.00722-.10666l-.42569.139v10.972c.03487-.03632.08416-.06659.10229-.1099a.4801.4801,0,0,1,.57315-.3584.43516.43516,0,0,1,.12921.05682.52069.52069,0,0,1-.07706.087c-.08271.0599-.21439.10081-.06612.22664-.037.03042-.06979.07789-.11174.08829-.18179.045-.36625.07909-.54973.11717,0,1.59558.00194,3.19121-.00347,4.78679-.00047.13449.03027.16589.16486.16493.95014-.00673,1.90036-.00357,2.85055-.00357a6.62535,6.62535,0,0,1,1.87249-1.07066.41129.41129,0,0,1,.3238.04637.603.603,0,0,0,.69783-.04579.51645.51645,0,0,1,.6226-.03178.7464.7464,0,0,0,.7373-.00815c.26308-.11367.43729.06066.64289.12876.03216.01065.03392.15429.0269.23443-.02186.24945-.05467.498-.08323.74682H85.897l.10926-.38111c.15311.14957.2242.0709.28535-.11014.02349-.06954.13121-.11061.20054-.16466a1.48827,1.48827,0,0,1,.06423.26805,3.82823,3.82823,0,0,1-.014.38786h2.15138q.13309-.57547.26734-1.15071c.00353-.01505.02783-.02422.03473-.03961.0785-.1749.16544-.34685.23063-.52666.10527-.29034.19-.58818.29646-.87805a.82506.82506,0,0,1,.14039-.20027c.07324.071.154.187.18649.17472.18669-.07045.30376.031.44121.11961a.20325.20325,0,0,0,.19547-.03487c.13209-.24194.24365-.49506.36363-.74369.07131-.14777.01023-.23567-.12377-.29983-.1466-.07021-.19648.01781-.22467.13424-.06744.2785-.13064.558-.19554.83709l-.065.00367a1.78541,1.78541,0,0,1,.00269-.3002c.04686-.27062-.05139-.36985-.31944-.30554-.07933.019-.15751.04282-.30928.08447.1595-.32722.28824-.58436.40893-.84522.02293-.04957.0012-.119.022-.17051a4.0308,4.0308,0,0,1,.23629-.52533,1.61083,1.61083,0,0,1,.26888-.27454h-.26333a2.86128,2.86128,0,0,1,.09776-.32377,1.57786,1.57786,0,0,1,.20619.05423c.09722-.27821.19657-.5745.30424-.86775.15385-.419.31374-.83572.47106-1.25344a6.12824,6.12824,0,0,0,.16339.6533c.04681.12993.16493.15421.22337-.005.14783-.403.28958-.80846.41832-1.21778a.26913.26913,0,0,0-.05611-.2404.39824.39824,0,0,0-.29709-.0671c-.09392.02457-.19344.12135-.05844.243a.22619.22619,0,0,1-.06876.11391,2.06122,2.06122,0,0,1-.222.12908c.10092-.30539.1954-.61319.30542-.91532.06651-.1827.10515-.31793-.176-.27395-.04035.00631-.09177-.058-.13806-.08961.043-.0108.0979-.00872.12668-.03507a1.24221,1.24221,0,0,0,.16669-.19718,1.4361,1.4361,0,0,0,.08937-.16567l.14394.14851c.02405-.06671.0646-.16442.09421-.26531.03015-.10263.0382-.21267.07552-.3121.17973-.47871.18208-.47783-.31959-.53908a.08111.08111,0,0,1-.0265-.00321c-.1007-.05308-.201-.10694-.30141-.1606.10941-.01485.2185-.03443.32842-.042.03962-.00274.10682.01233.11778.03793.06644.15536.13958.04385.17-.00651.0198-.03279-.02569-.10841-.04808-.16226a1.31752,1.31752,0,0,0-.06984-.1284.29548.29548,0,0,1,.06854-.02785.233.233,0,0,1,.25217.27375.36013.36013,0,0,0,.01833.11582c.0309-.01989.08193-.03409.08941-.06059.049-.17349.16019-.34988-.01676-.52105-.03242-.03135-.03059-.0981-.04456-.14851l.11888-.02415Z"/>
            <path d="M112.46284,66.6345h.19569l.01532-.06084-.8599-.32252-.03308.06962.15683.14046a5.67525,5.67525,0,0,1-.7002-.129c-.64564-.19971-1.28894-.409-1.92486-.63754-.65858-.2367-1.3059-.50453-1.96117-.75068-.35326-.13271-.3562-.12509-.2752-.48308.00989-.04368.01921-.08758.03137-.13064.07892-.27926-.184-.62374-.43567-.51325-.206.09039-.28545-.02153-.41358-.07894-.21358-.09566-.44431-.30681-.63205-.27268a1.62742,1.62742,0,0,1-.85992-.20259c-.57964-.19082-1.132-.46445-1.6956-.70417-.1572-.06687-.26959-.06712-.30143.148a1.98262,1.98262,0,0,1-.13561.46286c-.02215.05342-.12174.12268-.16689.111-.32632-.08464-.6516-.17707-.96989-.288-.6691-.23325-1.334-.47852-2.00008-.72051q-.96218-.34962-1.92285-.70331c-.00456-.00167-.00453-.01583-.01236-.04662h.45082l.01-.0702a2.63125,2.63125,0,0,0-.74882-.10582.91577.91577,0,0,1-.525-.07125c-.14885-.06162-.36564-.1758-.45779.10884-.14328.44258-.28584.88545-.433,1.32672q-.39056,1.171-.78688,2.34008c-.2044.60122-.4146,1.20048-.62224,1.80062h.16136c.22308-.70742.4417-1.41629.6703-2.1219.3304-1.01976.66866-2.03695,1.00222-3.05569.1042-.31821.11119-.311.43178-.19956q2.42182.84182,4.8504,1.66405c.20751.06977.24637.14338.17437.33814a4.04173,4.04173,0,0,0-.16214.61052c-.03624.18167-.11981.23648-.29658.17594-.52485-.17974-1.05275-.35054-1.57772-.53q-.93828-.32067-1.87345-.6505c-.21015-.07388-.41712-.157-.62471-.238-.173-.06749-.27316-.0358-.3304.16561-.18524.652-.37883,1.30211-.588,1.94684-.20614.63537-.43521,1.26331-.65419,1.89451H97.7296c.24436-.63129.0763-.59931.80692-.3618.32727.1064.64558.24035.968.3618h2.04381l.09925-1.15956a.98654.98654,0,0,0,.21035.04534.57368.57368,0,0,0,.1662-.05633.15564.15564,0,0,1,.08839-.01268c.20345.07439.40068.17042.60893.2254.1431.03778.35614-.07938.3501.21037-.00059.02717.08065.06277.12869.08318q.78675.33409,1.57515.66428h1.237c-.41627-.26208-.835-.52039-1.24656-.78974-.074-.04848-.10508-.16554-.18023-.20866-.06876-.03945-.1259-.22364-.25567-.06022-.023.029-.09643.03151-.14388.0254-.39-.05039-.78243-.09023-1.16823-.164a9.33034,9.33034,0,0,1-1.11327-.277c-.44147-.14252-.43616-.159-.64673.21385.132-.16768-.0404-.4728.28234-.563.03921-.01094.05085-.12661.07207-.19476.11445-.36723.231-.73385.34-1.10272.0408-.138.09752-.18789.25017-.13459.40516.14147.8157.26769,1.22509.39679.09289.02932.18984.04581.285.06818l-.688-.31685.01456-.04652c.05386.00906.10794.01689.1615.02744.10875.02141.1571.00871.1467-.1319-.00756-.10207.06512-.301.0951-.29964a1.05964,1.05964,0,0,1,.45.11653c.04246.023.00708.18954.00715.29041.0001.115,0,.23,0,.3559l-.194.0001c.48452.18079.96644.36823,1.4537.54056.692.24473,1.38741.47994,2.08264.71544.16692.05653.27545.09434.18745.33087-.14541.39092-.23071.80423-.34137,1.20809h1.61355c-.322-.13026-.64025-.27106-.96733-.387-.20655-.07321-.293-.16043-.19292-.3882a3.116,3.116,0,0,0,.17408-.59089c.03225-.14827.08531-.18742.23541-.13608,1.31089.44842,2.62428.88955,3.9357,1.33639a3.93547,3.93547,0,0,1,.36484.16576h.69917l-.49927-.17731Z"/>
            <path d="M74.76367,42.0563l.53212.13485.03284-.04316.01057.05973c.08425-.02312.1755-.07926.25146-.06318.22566.04784.267-.0396.22393-.23707a.6476.6476,0,0,1,.03232-.20414c.12155.08739.32505.06864.25565.30087l.00147.001c-.14289.22163-.27718.44969-.43514.66A.28209.28209,0,0,1,75.43,42.739c-.22559-.05056-.44468-.13023-.66631-.19863v.86056a10.36337,10.36337,0,0,0,1.25038.37327c.15076.02709.38881.18755.54021-.0553l.55561.36c-.026.02866-.05208.08215-.078.0821-.23578-.00053-.421.05188-.46174.33151-.00428.02941-.14188.07343-.20056.05535-.409-.12622-.81281-.26923-1.21988-.40188-.1261-.04111-.25719-.06688-.386-.09967v.59163c.11142.03122.22521.05586.33383.09487a8.68754,8.68754,0,0,0,1.18736.42239,5.88407,5.88407,0,0,1,1.70717.68,3.8426,3.8426,0,0,0,.82275.38338c.339.0926.70441.08459,1.04964.16011a2.77714,2.77714,0,0,1,.50324.248,1.52484,1.52484,0,0,0,.27549.07555,1.62036,1.62036,0,0,1,.34247.082c.39065.19511.77283.40707,1.1613.60668.03758.0193.09678-.00345.14594-.00668-.01-.04985-.00281-.12116-.03323-.1456a3.0399,3.0399,0,0,0-.31251-.20433c-.16185-.1-.24858-.2152-.15194-.41965a4.13279,4.13279,0,0,0,.16559-.49582.21491.21491,0,0,0-.104.12049c-.07435.17093-.10574.426-.23309.48956-.12152.06069-.34623-.06781-.51907-.131-.36835-.13461-.73617-.27235-1.09528-.42928a.2905.2905,0,0,1-.14665-.2323c.04177-.20688.13684-.40233.197-.60639.06465-.219.15534-.27634.35181-.11608a2.706,2.706,0,0,0,.45689.27852c.04508.02371.11443.00135.17264.00012-.01886-.04767-.024-.11376-.05895-.13985-.16265-.12132-.04395-.14567.10488-.1835-.185-.10723-.36082-.29333-.48072-.2624-.31685.08166-.252-.09874-.22364-.25308a3.041,3.041,0,0,1,.13606-.43041c.05146-.14946.10713-.29749.16094-.44615l-.0426-.01226-.14384.24356-.05883-.03164c.15889-.43379.32059-.86658.47591-1.30164.19491-.54594.38455-1.09376.57648-1.64075H80.5186l.05209.108.05673.16258.004-.0033c-.09788.11807-.1374.04639-.17065-.04557l.06015-.06369-.06147.054.00538-.212H80.1959c-1.748,0-3.496.00271-5.24395-.00456-.1605-.00068-.20257.0312-.19285.19308C74.77569,41.49981,74.76367,41.77841,74.76367,42.0563Zm1.98577.57552a5.82932,5.82932,0,0,1-.26783.64057.16455.16455,0,0,1-.14269.07089,1.71321,1.71321,0,0,1-.3-.17215.91364.91364,0,0,1-.2935-.28063,3.312,3.312,0,0,0,.38613.17717.26162.26162,0,0,0,.17506-.05408c-.0116-.09744-.02183-.25406-.07828-.27637-.18559-.07337-.238-.13053-.19454-.32473.03-.134.049-.27037.07262-.40579.19719.1317.401.2551.58686.40124A.25155.25155,0,0,1,76.74944,42.63182Z"/>
            <path d="M120.56434,41.058c-.10757-.10757-.40667-.02361-.6218-.02361.22256.15869.22293.248.01733.44091a2.47271,2.47271,0,0,0-.20431.24622l-.13573-.68713h-3.7649a3.09994,3.09994,0,0,1-.25951.30448c-.727.66418-1.45855,1.32325-2.18721,1.98557a.75932.75932,0,0,0-.09169.12563l.03678.02878,1.191-1.02233.05689.05848c-.54241.89448-1.48674,1.40508-2.13423,2.13169.49568-.33031,1.02862-.68545,1.56157-1.04057l.05207.06461-1.42289,1.24719.04711.05259,1.71835-1.37442.0497.06184-.82454.69066.03345.04194.68946-.53229a.26137.26137,0,0,1-.10224.19109c-.6227.51044-1.24915,1.01632-1.86865,1.53057a3.66258,3.66258,0,0,0-.329.35223.245.245,0,0,0,.2102-.01471c.32017-.2232.63432-.45506.95479-.67781a3.90119,3.90119,0,0,1,.76258-.49553,6.9331,6.9331,0,0,0,1.493-.95428c.04152-.02959.11312-.017.17075-.024a.42074.42074,0,0,1-.05579.13941c-.10133.10762-.21236.20612-.31964.30816a2.84331,2.84331,0,0,0,.51988-.27449c.15886-.103.30818-.22084.46727-.32352.39268-.25344.394-.25144.48735-.21909-.37555.303-.75142.60587-1.13693.91652.19039.15539.307.05629.434-.03435.17408-.12421.19138-.11127.25163.07265.01057.03225.09013.05993.13711.05883.14783-.00343.29531-.02156.44294-.034l-.00477-.004c.2579.08643.51812.16616.77175.26308a.82526.82526,0,0,1,.19888.16136l-.03228.06749.22322-.07889-.02151.17648a.77845.77845,0,0,0,.22173-.04456c.209-.112.31117-.07894.33126.1478.01828.20656.08895.257.26788.14673.07615-.047.15663-.08709.23638-.12788q.75214-.38472,1.5049-.76831V43.18576c-.076.00908-.15167.02171-.22787.02621-.07934.00467-.15911.00149-.23869.00174a.699.699,0,0,1,.06575-.21458,1.04842,1.04842,0,0,1,.198-.17.87064.87064,0,0,0-.69575-.02973.25587.25587,0,0,0-.04561.13769.88422.88422,0,0,0-.00184.13975c-.05435-.04287-.15392-.0851-.15455-.12876a1.46479,1.46479,0,0,1,.05882-.3942c.055-.205.21207-.08117.32955-.10069.06905-.01148.125-.10714.18473-.16706.02846-.02861.0519-.06218.07762-.09353.03066.03886.07591.0737.088.11768.01341.0485-.02694.12438-.00237.15463a.94872.94872,0,0,0,.193.14638,1.59514,1.59514,0,0,1,.08266-.143.74736.74736,0,0,1,.08849-.08931v-.6992C120.588,41.46467,120.67192,41.16557,120.56434,41.058Zm-3.67879,3.31376c-.06259-.05391-.16-.10476-.01818-.18236.16807-.09191.33564-.18524.50816-.26807.03636-.01745.09331.00793.19574.02009l-.38022.26443c.36449.09326.51914-.18233.73974-.294a.71313.71313,0,0,1,.33275-.09876C117.81828,44.03076,117.5248,44.63929,116.88555,44.37178Z"/>
            <path d="M84.83372,43.11025c.7766.2677,1.558.52129,2.33716.78171.13784.04608.25858.09972.374-.06881.03965-.05792.19227-.03852.29326-.05442a.9908.9908,0,0,1,.02914.20822c-.01169.17242.03774.21646.20049.1325.05247-.02706.13344.00111.20135.004a.90891.90891,0,0,0-.06329.15385.614.614,0,0,0,.00145.14418c.04353-.02117.11-.031.1269-.06531a4.82837,4.82837,0,0,0,.359-.79752c.04688-.1665.10013-.1873.229-.14093.336.12089.66993.24725,1.00471.37144-.065.09492-.34146-.145-.26846.16836-.04863.00585-.10476.03-.14435.01382a2.05357,2.05357,0,0,0-.25555-.13534c-.0834-.02017-.24282-.01483-.25741.02263a.78383.78383,0,0,0-.04292.38654c.00693.04635.14279.07348.21982.10938l.23453-.32379c-.00869.117-.02137.23457-.01694.23523.23318.03409.46781.05829.6889.0821l-.15079-.558a.98914.98914,0,0,1,.90387.76218q.44349-1.23266.88594-2.46585c.01145-.032.02488-.08567.00922-.10173-.24681-.25288-.01652-.47923.03149-.7165a.9948.9948,0,0,0-.00477-.22375H85.3592c-.14523.33583-.28638.67352-.43756,1.00667a2.242,2.242,0,0,1-.24228.4412A.40045.40045,0,0,0,84.83372,43.11025Z"/>
            <path d="M119.01543,65.35515c.03174-.12118.0737-.23984.10167-.36178.03419-.14892.12994-.31366-.08445-.41705a.09569.09569,0,0,1-.01921-.09132c.01307-.02418.06967-.05259.08624-.043.21749.12654.17367-.05271.19253-.11354a1.99436,1.99436,0,0,1-.27649-.04542c-.40107-.12634-.79967-.26059-1.20067-.38712a.46657.46657,0,0,0-.151.00443c.006.039.0114.07808.01811.11694.02212.1281.046.25591.06687.38421.03062.18774-.08183.25418-.24037.28538a.08776.08776,0,0,0-.04877.059c-.01339.05807-.045.1479-.0195.17171a.663.663,0,0,0,.22439.1133,1.17359,1.17359,0,0,1,.23377.07314.18792.18792,0,0,1-.00923.16665.39621.39621,0,0,1-.21049.01417c-.10273-.01278-.57034.46572-.50667.52323.22393.2023.055.47118.14712.68958.0336.07958.06972.1581.10469.23712-.04466-.02677-.08871-.05459-.1341-.08-.08966-.05029-.18006-.09926-.27016-.14878l-.08914.34486h1.72111c.00059-.04459-.001-.08934.00218-.13373.01412-.1964.16256-.41539-.10434-.56782-.01667-.00952.02691-.20531.06227-.21213.2568-.04965.21853-.14049.06921-.285-.02792-.027-.0141-.12267.01147-.16982a.1416.1416,0,0,1,.13672-.02741C118.97848,65.57024,118.98871,65.45719,119.01543,65.35515Z"/>
            <path d="M119.68783,65.2439c-.05963-.0264-.08381-.13289-.11858-.19268-.04606.03615-.09786.10672-.13325.09926-.13664-.02876-.20628.01585-.22877.14878-.02095.12384-.11281.25846.08342.34007.03455.01436.04028.13456.03049.20168-.00419.02871-.0823.04659-.12678.06945l-.18065.093a1.11543,1.11543,0,0,1,.10019.13809.35383.35383,0,0,1,.06005.17643c-.00316.03218-.0821.061-.13053.0835a1.45591,1.45591,0,0,1-.15245.05256q.04254.08774.085.1755.05319.1106.106.22139h.43026c.06837-.16873-.04319-.23612-.15984-.31868a.25425.25425,0,0,1-.05843-.19474c.00151-.02949.08119-.066.13074-.07921a1.17987,1.17987,0,0,1,.2014-.02029c-.043-.0692-.09145-.13571-.12723-.20846a1.75129,1.75129,0,0,1-.072-.20227c.06605-.02132.13178-.04366.19822-.06363.05408-.01622.109-.02958.16353-.04422C119.72094,65.57034,119.95483,65.36207,119.68783,65.2439Z"/>
            <path d="M94.09058,42.76245c-.15779-.1942-.05668-.37056.04681-.54675a.63775.63775,0,0,0,.11134-.19789c.07324-.52377.06918-.52169.59185-.36249.21808.06644.44025.11952.66058.17866l.019-.076c-.243-.0831-.49068-.1549-.72766-.25261-.22229-.09167-.48973-.15081-.50509-.47093H94.126c.02919.13544.12034.29714.0761.40146-.14154.3339-.33378.64624-.50434.968a.13865.13865,0,0,0-.0048.07708c.01855.14139.03923.28249.06094.43621Z"/>
            <path d="M105.76044,41.703a3.90413,3.90413,0,0,0,.48128.07953c.04124.04116.07532.10461.12466.12037.54048.17293,1.08463.33451,1.62433.5098a1.00635,1.00635,0,0,1,.23815.16512l-.04461.06453q-1.00814-.30036-2.01628-.60077l-.02912.08437a.83315.83315,0,0,0,.1489.08408c.39944.12884.80139.25,1.20034.38032q.77536.25343,1.54656.51961c.04924.017.08457.07427.12637.11286a.6179.6179,0,0,1-.16014.00913c-.10456-.02122-.20687-.0545-.30921-.0858q-1.61476-.49362-3.23-.98589a.50894.50894,0,0,0-.16713.0082.52687.52687,0,0,0,.12558.10064c.36424.13831.72609.28553,1.09746.402.77975.24441,1.56531.4703,2.3469.709.05192.01586.09044.07562.1352.115a.48863.48863,0,0,1-.18444.02393c-.26634-.07657-.528-.16968-.79417-.24674a.54442.54442,0,0,0-.1891.01593.58886.58886,0,0,0,.14572.1202c.30647.11526.61663.22075.92486.33143a1.00578,1.00578,0,0,1,.11829.06049c-.05273.015-.112.05347-.15719.041-.33623-.09245-.6693-.19638-1.0044-.29311a1.16131,1.16131,0,0,0-.18-.02349l-.01644.07035c.06883.02643.137.05487.20663.0789.25244.08706.50674.16884.75768.25995.21243.07713.23463.1674.05083.29959a.40913.40913,0,0,1-.31364.02454c-.685-.20849-1.369-.42175-2.04619-.6541-.212-.07272-.5534.01263-.56294-.3775-.00034-.014-.04092-.033-.06541-.03943-.13921-.03651-.27926-.06988-.4483-.11156.07965.11166.28736.19276.02948.28425-.00763.0027.00223.06059.0073.09221.026.16248-.09867.37029.13994.47248a.3903.3903,0,0,1-.02461.09942c-.29622.88275-.58385,1.76852-.89306,2.64672-.18042.51246-.391,1.01455-.59676,1.51776a2.96877,2.96877,0,0,0-.34039.80068c-.02689.38664-.31276.72044-.19833,1.12332.00269.00947-.01574.03394-.02814.03732-.1539.04187-.22313.09069-.25854.29644-.0483.28055-.09536.3201.18987.40342l.00025.00034q.06925.04126.13884.08213l-.14183-.08651.06135-.08655.45009.00871.34559.10841-.20924.05207-.13635-.16048q-.225-.00436-.45043-.00817.15852.08761.31777.17416l.26893-.00005.05318.108.32822-.00183-.15815-.1609c.22792.01324.25214.03.23849.16457.1616.06986.33292.21439.48322.1951a2.31293,2.31293,0,0,1,1.10837.199.86513.86513,0,0,0,.13767.02469l-.11547-.19968a1.00931,1.00931,0,0,1,.24651-.00149c.17387.04152.34333.1014.52294.15636l-.1086.54553a.60921.60921,0,0,1-.2299-.02993.71557.71557,0,0,0-.84651.10441c-.03874.02819-.105.02509-.13408.058-.02462.02788-.01723.08406-.02241.12916a1.8895,1.8895,0,0,0-.889.56087c-.1741.14388-.29714.34865-.4679.49773-.21615.18872-.46019.34516-.68552.524-.042.03331-.087.12089-.07128.15877.07224.174-.06781.21825-.16131.27918-.11651.07591-.24659.131-.39735.20879l.64548.2034-.17893.15421a4.45094,4.45094,0,0,1,2.00006.41558.75813.75813,0,0,0,.32389.05328,8.43617,8.43617,0,0,0,1.16013-.23064c.31048-.09588.62253-.202.72279-.61646.3488-1.44176.91532-2.8186,1.20537-4.285a29.77431,29.77431,0,0,1,.99348-3.2577c.06994-.218.06451-.35754-.19-.401-.23624-.04035-.23328-.17957-.17252-.36943q.34764-1.08639.67825-2.17818a7.84283,7.84283,0,0,1,1.35083-2.90752H107.357c.40645.14435.81428.285,1.21834.43584a1.5634,1.5634,0,0,1,.25858.15713l-.03512.0543-1.21053-.25809c.16628.095.328.19968.50054.28143.10283.04872.22729.05046.33327.09441a.74294.74294,0,0,1,.17154.143.57034.57034,0,0,1-.21067.02432c-.65011-.18937-1.2975-.38795-1.94624-.58208-.39212-.11731-.78524-.23129-1.17792-.34677a1.08467,1.08467,0,0,0,.28019.219c.86966.291,1.74426.56711,2.61612.85158a1.74571,1.74571,0,0,1,.24378.123l-.02491.08029a3.28491,3.28491,0,0,1-.33591-.06585c-.52049-.15737-1.03882-.32189-1.55917-.4798a1.1286,1.1286,0,0,0-.21008-.02346l0,0c-.08707-.039-.17166-.08523-.26162-.11567-.58925-.19943-1.17968-.39544-1.76971-.59255h-.484a1.30039,1.30039,0,0,0,.22985.12621C104.57425,41.346,105.166,41.52937,105.76044,41.703Zm-.14433,11.01875a1.2691,1.2691,0,0,1-.09226-.16959c-.03925-.10657-.06856-.21685-.10192-.32548l.59865-.26967c-.09188.25129-.15575.45078-.24015.64111C105.75615,52.65285,105.67251,52.68126,105.61611,52.72174Zm3.15228-4.06462c-.32106,1.01935-.63639,2.04051-.95531,3.06051-.12208.39041-.25308.77805-.37115,1.16962-.03714.12326-.077.18344-.22119.13513-.3731-.125-.75009-.23849-1.12626-.35421-.31432-.09668-.10725-.29663-.08758-.4541.02222-.17788.12069-.2047.28675-.14467.12781.04617.31464.17548.35881-.10633l-.00078,0c.09064-.20592.23472-.28636.50334-.11279-.10826-.20019-.41165-.1406-.2995-.38717.059-.12969.176-.2324.23918-.36087.14467-.29433.42069-.24218.66765-.29144.09438-.01885.24432-.12931.24214-.19369-.007-.20761.24649-.39755.04767-.61661a1.01447,1.01447,0,0,1,.10865-.1144c.13686-.12651.20912-.2472-.04131-.31743-.16141-.04527-.14895-.14051-.1063-.26609.069-.20309.12348-.41106.19148-.61451.0301-.09.02553-.2451.20125-.15037.00822.00443.042-.01821.04123-.02029-.10441-.29631.13371-.1549.21126-.14494C108.83732,48.39543,108.81092,48.52212,108.76839,48.65712Z"/>
            <path d="M75.23177,48.89644c.00639-.03516-.09744-.10615-.16251-.13464a2.3331,2.3331,0,0,0-.30559-.09v.91432c.148.03673.24111.03736.199-.17321-.01468-.07331.08878-.16985.13728-.25635A.92688.92688,0,0,0,75.23177,48.89644Z"/>
            <path d="M102.04981,66.17518c-.0229-.0092-.12242.11213-.1499.18674-.05829.15827-.09243.32543-.13648.489h.43027c.03054-.12754.063-.25467.09115-.38272C102.3267,66.27811,102.17393,66.22505,102.04981,66.17518Z"/>
            <path d="M103.09679,41.21236c.267.09457.54028.1719.813.24947.13254.03771.26857.06314.403.09412l.02354-.082-1.22835-.43954h-.10757C103.03182,41.09583,103.04961,41.19564,103.09679,41.21236Z"/>
            <path d="M120.1528,66.40763l-.00311-.0036q-.02306.2231-.04581.44686h.21514c.03774-.18671.06615-.37609.11876-.55852.01632-.0566.09827-.09431.15018-.14068V66.0979L120.2348,66.01Zm.189-.18174-.1088.27465-.0796-.0922.15536-.19763Z"/>
            <path d="M88.93511,66.51006l-.007-.04135-.07632.27253-.00333-.00088.00671.11053h.21514l-.13468-.38267Z"/>
            <path d="M98.27948,49.39041c.16606-.00759.12367.08192.0888.17261-.20379.5303-.40932,1.06-.6087,1.592a.64256.64256,0,0,0-.04429.26118c.03335.47864.07424.95677.11807,1.43458.00587.064.02581.16058.06866.18133a4.52151,4.52151,0,0,0,.49411.18757,3.95394,3.95394,0,0,1,1.23657.4404c.02421.01864.06823.01363.10325.01571.08129.00482.16273.00722.24411.01062l-.16916.2494c.17663-.05117.304-.08959.4323-.1246.06891-.0188.13938-.03172.20915-.04731.00484.07613.0126.15224.01343.22841a1.17471,1.17471,0,0,1-.01485.14166c.04473-.01989.1141-.02824.12981-.06176.05864-.125.06845-.28535.15331-.38328.23583-.27226.50813-.51256.75132-.77893a2.63222,2.63222,0,0,0,.587-1.45778l-.25912.04169a2.67635,2.67635,0,0,1,.00169-.466c.009-.05565.12074-.12764.19141-.13476.36268-.03661.36686-.03541.24153-.38309-.01217-.03369-.02956-.0657-.03947-.1-.06639-.22953-.00857-.30657.26281-.3109-.07628-.20873-.13836-.41353-.228-.60545a.312.312,0,0,0-.2011-.14707c-.04277-.00824-.12972.07789-.155.13882-.07138.17228-.11878.35434-.18018.531-.06193.17822-.12932.35453-.18734.51266a1.8602,1.8602,0,0,0-.24828-.24283c-.10846-.07057-.23573-.11156-.35074-.173-.03788-.02022-.06289-.06446-.09379-.09771.15511-.08051.08909-.3378.33593-.37839.10033-.0165.2149-.22565.23384-.35975.0127-.0899-.01887-.30441-.264-.24908-.10659.02408-.236-.07924-.35842-.09162a1.91953,1.91953,0,0,0-.36542.02946l.00521.05952.34127.092-.187.04644.0023.06106h.418l-.18459.321c-.063-.0601-.12213-.12495-.18979-.17917-.10361-.083-.20974-.16384-.32091-.2362-.1292-.08408-.1997-.03332-.267.10139-.1213.24272.1583.28028.15884.48885-.09032-.0742-.25283-.1448-.25675-.2233a2.436,2.436,0,0,1,.09084-.59583.20145.20145,0,0,1,.12972-.00336c.15149.0637.2136-.00513.24678-.14305.023-.09548.059-.18774.086-.28237.03348-.11728.07713-.19185.22812-.14043.04845.01649.12759-.05712.19268-.08949-.03722-.06727-.05912-.1734-.11426-.19511-.24108-.09492-.49095-.16813-.73928-.2439-.23658-.07213-.48508-.1233-.58108-.42109-.21685.56772-.40643,1.12487-.59414,1.68263q-.32529.96636-.64757,1.93376c-.03411.10224-.06506.17017.08555.24911.503.26367,1.11324.178,1.59008.50985a.16116.16116,0,0,0,.07833.01566c.13933.00861.28016.00631.41756.02714a.37618.37618,0,0,1,.19428.09954c.02554.025.00227.09989.00107.15224a.80526.80526,0,0,1-.20242-.01217c-.75815-.24492-1.514-.49695-2.27251-.7408-.155-.04982-.18629-.11961-.13405-.27693q.66042-1.98833,1.30308-3.98249c.06749-.20984.20164-.24471.38581-.22848.05141.00452.14088.01507.14868-.00375a.32013.32013,0,0,0,.02384-.20362.96388.96388,0,0,0-.13831-.21485c.08207.0335.16407.06715.24632.10023a.20267.20267,0,0,0,.02645.00433q.62147.15554,1.24289.31129c.21426.05362.408.11739.25354.40548-.01505.02807.01018.08137.02572.11927a.09309.09309,0,0,0,.06744-.0013c.06817-.1744.0887-.11158.10334.01787.00039.00345.07779.01006.08244-.00069A1.23433,1.23433,0,0,0,101.87756,47c.004-.03955-.11829-.11093-.19344-.136-.399-.13315-.80383-.24943-1.20084-.38811-.086-.03-.21246-.13133-.20913-.19385a1.46166,1.46166,0,0,1,.12967-.48244c.04821-.11288.15556-.19961.21013-.311a1.84533,1.84533,0,0,0,.11633-.36848c.0177-.071.04757-.1881.01623-.21233a.40838.40838,0,0,0-.26543-.07963c-.03483.00311-.06779.13557-.0844.21285a3.8694,3.8694,0,0,1-.09948.5175,5.07094,5.07094,0,0,1-.29007.5802c-.02479.04765-.05726.0913-.08619.13682l-.07762-.03441c.19565-.57645.39129-1.15288.58847-1.73381-.25425-.108-.25307-.10763-.35431.203q-.204.626-.4126,1.25042c-.02515.07474-.04852.17416-.10554.21008-.31256.197-.27334.56016-.394.8404a10.37819,10.37819,0,0,0-.37024,1.24856,1.40286,1.40286,0,0,1-.08477.25011c-.127.2499-.05564.62931-.4565.70561-.02684.00512-.05963.06916-.05794.10425A.11068.11068,0,0,0,98.27948,49.39041Z"/>
            <path d="M82.984,46.91525c.0115.0337.11572.06781.16065.05286a.811.811,0,0,1,.8238.11276,6.576,6.576,0,0,0,1.44815.56882l.01766-.04329-.23792-.16774.04187-.084a5.64167,5.64167,0,0,1,.73125.32835c.2797.174.52761.39855.79241.59706.26961.20212.35825.16593.43154-.16672a.51745.51745,0,0,1,.03421-.10057c.15649-.34744.31031-.69619.47487-1.03978.02511-.05245.10638-.11967.15255-.11335.22675.031.44892.09521.67556.12766.29793.04265.59855.06661.898.09859-.25917-.17866-.52091-.35374-.7767-.5371-.20964-.1503-.3271-.10058-.39248.14087a.26573.26573,0,0,1-.237.11294c-.10856-.03784-.35762.02985-.29015-.20558a2.32344,2.32344,0,0,1,.30069-.58815.238.238,0,0,1,.22812-.02017c.21429.14137.413.30638.61886.4635-.05557-.10884-.05917-.18977.09477-.1166.23387.11114.45528.24955.69223.35287.15561.06785.18869.19591.11956.29455-.135.19256-.01439.29186.0924.41032a3.10941,3.10941,0,0,1,.28445.31995c.13116.19406.27219.19927.46235.04457l-.4671-.79094c.24277.12047.48082.23582.71613.35648.13359.0685.233.07334.28876-.0969.24465-.74684.49315-1.49244.74026-2.23847l-.20022.15108a.77229.77229,0,0,1,.01321-.26764c.073-.16818.20044-.31537.25731-.48716.07023-.21218.08477-.44216.13559-.66163.05291-.22856.148-.17379.24581-.02359a4.236,4.236,0,0,1,.12218-.43524c.08785-.22334.19741-.438.28973-.65975.02142-.05141.03275-.156.01057-.16853a4.20461,4.20461,0,0,0-.39911-.18118c-.023.10721-.01214.226-.0658.27716-.21446.20433-.46208.37941-.434.72663a.06686.06686,0,0,1-.02677.045c-.24375.19684-.21216.513-.31777.76789-.15588.37626-.22173.78883-.35184,1.17728-.05058.151-.186.40377-.25812.39549-.36618-.04206-.755.09309-1.10362-.14126a.43045.43045,0,0,0-.60027.01918c-.21176.28572-.41274.24982-.66016.09676a.29174.29174,0,0,0-.07726-.02186.94652.94652,0,0,1-.3189-.0426,2.20238,2.20238,0,0,1-.34763-.27263c-.03078.04359-.06756.12816-.093.12485a3.8653,3.8653,0,0,1-.54593-.10576c-.06769-.01891-.1205-.0912-.18008-.13916l.1708-.11614c-.36838-.14514-.36818-.14514-.352.25285a.126.126,0,0,1-.01243.04415c-.21644-.20367-.42846-.43687-.68256-.03705a4.44236,4.44236,0,0,0-.45107.69964c-.09829.25124-.21074.55463.09348.78673.02988.02278.01938.11668.00658.17274-.01771.07769-.07845.15025-.08033.226-.00649.25914-.13033.22217-.31291.16314-.89305-.28868-1.78978-.566-2.68628-.84386-.24708-.0766-.24877-.07121-.28183.23484C82.65478,46.6221,82.87127,46.58524,82.984,46.91525Zm4.31974-1.23774c.066.037.10425.12007.165.17026.355.2935.36858.39347.05181.85855a2.31588,2.31588,0,0,0-.71-1.35736C87.0751,45.30276,87.13058,45.58038,87.30375,45.67751Z"/>
            <path d="M95.1691,43.33381c-.04787.21338-.134.31-.37186.20665a4.50935,4.50935,0,0,0-.66562-.20714c-.2001-.05195-.29916.03475-.24767.20629.16165.5386.321,1.07807.49751,1.61183a.50089.50089,0,0,0,.22063.28,7.2353,7.2353,0,0,0,.75824.26925c.15642.05227.23027-.003.24667-.17254a1.41372,1.41372,0,0,1,.10378-.53708c.16427-.29627.02863-.691.32683-.9353.01859-.01522.01074-.06905.00714-.10412-.02812-.27292-.051-.54667-.08961-.81815-.043-.30177-.10092-.60139-.15235-.902l-.05142.0048-.17195.44282-.06284-.02188.22114-.79363-.0393.00668c-.12265.27309-.25878.54114-.36341.821A4.87332,4.87332,0,0,0,95.1691,43.33381Z"/>
            <path d="M102.7425,62.27112c.17161.04573.26739.06472.35869.09661.82581.28831,1.64815.58693,2.47824.86217a1.94382,1.94382,0,0,0,.55883.03822.48159.48159,0,0,0,.15515-.05386c.00051.05629-.0023.11289.00288.16875.003.03189.0117.08313.03052.08979a.38151.38151,0,0,0,.154.01375.113.113,0,0,0,.01693-.08751c-.22922-.37836.11046-.23979.22873-.22689a.9765.9765,0,0,1,.35644.16523.69316.69316,0,0,1,.13549.14618l-.17171.08986.00032.08433.258-.03789c-.02085-.09413-.01082-.21935-.06838-.27659a.76115.76115,0,0,0-.63667-.28562c-.04564.00536-.09857-.05129-.14812-.07928a.35223.35223,0,0,0,.04933-.06265c.04821-.10131.14063-.21174.12568-.304-.01351-.08345-.13358-.1804-.2274-.21478-.42768-.15676-.86269-.29336-1.295-.43754-.64412-.21482-1.28564-.43817-1.93462-.63714-.11206-.03435-.25567.03421-.38471.05521a2.90735,2.90735,0,0,0,.15033.34122c.03367.05721.11611.08371.16079.13723.02428.02909.01549.08574.02163.13C102.84334,61.90878,102.97086,62.23236,102.7425,62.27112Z"/>
            <path d="M92.94736,50.18426c-.21762-.12967-.391-.34027-.67529-.34624-.28856-.00607-.56478-.03744-.594-.42214-.0022-.029-.11628-.08621-.14276-.07045-.15972.095-.30865.20805-.462.31386-.0717.04945-.14526.09619-.218.14418l-.03955-.0672-.17313.08137c.04946.04449.09167.10906.14964.13006.2566.09294.51949.16838.7767.25973.23959.08508.54576.00027.71292.27625.00947.01568.052.00844.07635.01847.38409.15769.76691.31849,1.153.47114.03122.01233.11907-.02589.12135-.047.03017-.27974.04591-.56106.07429-.84105a1.34969,1.34969,0,0,1,.06889-.23932.88555.88555,0,0,0,.16079.06c.02217.004.07471-.0333.07429-.0509-.00266-.11217-.0206-.22388-.02547-.3361-.01794-.41466.268-.70977.4416-1.04235.07086-.13577.01916-.10209-.05014-.14861-.18772-.12607-.2912.09105-.42572.09316-.2808.00438-.24094.15005-.20357.32717.02812.13334-.00727.208-.16841.236-.311.054-.37329.22464-.22725.5223a.21556.21556,0,0,1,.01739.16873.17516.17516,0,0,1-.15482.04135c-.20874-.05165-.17925.07944-.15461.1967.01035.04918.07251.08944.07762.13733a1.005,1.005,0,0,1-.02285.222C93.0587,50.2433,93.00142,50.21648,92.94736,50.18426Z"/>
            <path d="M93.23447,51.75375c.15135.06468.29084.157.4416.22332.15845.06972.325.12091.48689.183.05208.02.10077.04882.151.07361.01759-.0635.068-.14142.04745-.18823a.85849.85849,0,0,1,.13914-.83413,4.40739,4.40739,0,0,0,.38057-.61962c.18421-.47323.33091-.96133.48579-1.44562.0609-.19046.22909-.44344-.19445-.42469-.02993.00132-.06357-.08129-.12641-.16711-.19648.57016-.381,1.10015-.56129,1.6316-.0735.21679-.1315.44309-.40883.39983a1.434,1.434,0,0,1,.0397.30194c-.0141.15987-.05964.3167-.07907.47639-.02011.1654-.07718.19973-.24649.14646-.52624-.16559-1.05941-.30941-1.591-.45755a1.33766,1.33766,0,0,0-.22613-.02413,3.44561,3.44561,0,0,0,.52015.304c.13772.07392.28041.2459.39809.22762.25278-.03925.12744.09287.11643.17374A.745.745,0,0,1,93.23447,51.75375Z"/>
            <path d="M88.79847,48.6905c-.06624.14124-.14546.40129-.207.39774a1.137,1.137,0,0,1-.69227-.19361c-.26037-.25767-.57665-.213-.85251-.337a2.1323,2.1323,0,0,0,.40389.31283c.29147.166.5869.32634.88892.472.157.07569.34427.09192.49553.17543.33767.18652.65914.40211.992.59775a1.8431,1.8431,0,0,0,.27869.11609,7.797,7.797,0,0,1-.41925-.80719,1.85013,1.85013,0,0,1-.06443-.57433c-.0046-.09717.07042-.23212.02794-.28772-.20335-.26617-.4346-.511-.63689-.74173l-.20475.31264c.17472.02958.15639.17729.06411.35555C88.8398,48.552,88.82874,48.62592,88.79847,48.6905Z"/>
            <path d="M107.25552,59.20052c.07219-.00249.13485-.27916.20207-.43061a1.47394,1.47394,0,0,0,.06515-.14631c.10395-.327.20552-.65473.32979-1.05231a1.69174,1.69174,0,0,0-.34132-.36566c-.29778-.18018-.36745-.14482-.47972.18319-.15833.46247-.30919.92775-.448,1.39636-.02136.07222.01529.22217.06556.24432A1.47343,1.47343,0,0,0,107.25552,59.20052Z"/>
            <path d="M104.58621,57.23925c-.10845.2707-.19251.55167-.27436.83205-.01556.05325.00578.163.03959.17734.18838.08019.38583.139.62354.22a1.00062,1.00062,0,0,0,.1191-.1921c.13574-.38372.26555-.76957.394-1.15582.17861-.5371.17849-.54119-.3594-.7127a1.063,1.063,0,0,0-.2889-.01013c.00314.12308.01148.24634.00749.36918a.4711.4711,0,0,1-.04116.22748C104.74779,57.08612,104.62439,57.144,104.58621,57.23925Z"/>
            <path d="M112.08846,51.51171a.62737.62737,0,0,0,.4968-.35357,6.62276,6.62276,0,0,0,.32818-.93074.30029.30029,0,0,0-.11753-.24527,2.58361,2.58361,0,0,0-.39374-.18074c-.243-.116-.32558-.07679-.4114.20712-.09746.32245-.18575.64788-.29213.96732C111.56425,51.37933,111.62012,51.47709,112.08846,51.51171Z"/>
            <path d="M76.1528,46.622c.0888-.19393.16892-.39184.26-.60946a.63436.63436,0,0,0-.1181-.08022c-.19694-.07874-.39429-.15705-.59471-.22625-.477-.16471-.47737-.16244-.65189.30454a.55179.55179,0,0,1-.05521.09139c-.081.13019-.05.21092.10111.25288.316.08778.63019.18233.946.27082C76.076,46.63575,76.1456,46.63768,76.1528,46.622Z"/>
            <path d="M76.41752,47.46068c.0786-.22741.19591-.253.405-.18118.4122.14151.83187.26127,1.24846.39l.06292-.06182c-.07677-.10329-.134-.268-.23355-.29959-.53189-.1688-1.07274-.31083-1.61513-.443-.06669-.01625-.18711.06318-.23615.13158a.79616.79616,0,0,0-.09915.30532c-.02.10045-.06583.263-.02158.29753A.28057.28057,0,0,0,76.41752,47.46068Z"/>
            <path d="M85.55342,49.05785c-.171-.08078-.38306-.07549-.50745-.25437-.0069-.00989-.03384-.00585-.099-.01488a1.74719,1.74719,0,0,0-.14445.15409c-.08624.11315-.16163.23453-.2476.34788-.09492.12514-.04539.18724.08448.22676.31273.09515.62451.19352.93768.28722a.43429.43429,0,0,0,.12135.00088c-.00646-.04625.004-.10924-.02229-.13589a.3084.3084,0,0,1-.07233-.40447A.21876.21876,0,0,0,85.55342,49.05785Z"/>
            <path d="M109.74917,52.53468c-.19447.54261-.37127,1.09156-.55335,1.63863l.08359.06915c.10282-.0923.2436-.16559.30125-.28055.16244-.32382.293-.66382.43005-.99992a.34647.34647,0,0,0,.01583-.1827c-.0185-.10336-.05466-.2036-.0981-.35688C109.89225,52.4437,109.77176,52.47165,109.74917,52.53468Z"/>
            <path d="M115.9094,46.118l-.06808-.03607a1.02694,1.02694,0,0,0-.17181.2417c-.09139.26959-.1653.5453-.24064.82011-.08242.30062-.14484.60944-.47527.75663a.91961.91961,0,0,0-.18059.14251.5663.5663,0,0,0,.306-.00912,1.30938,1.30938,0,0,1,.38588-.06781,6.55885,6.55885,0,0,1,.675.14063l.02961-.11136a3.64691,3.64691,0,0,0-.47676-.1827c-.27574-.06534-.2625-.21045-.18317-.4323C115.65806,46.96488,115.77772,46.53926,115.9094,46.118Z"/>
            <path d="M96.44724,55.2473c.03659-.1064.05944-.21747.087-.327-.067-.01126-.13517-.0177-.20054-.0349-.09465-.02494-.18764-.0565-.28065-.08721-.28758-.095-.57484-.19087-.91557-.30412-.04341.03971-.13155.08753-.15974.159-.01569.03979.05511.154.10973.17481.41492.158.83508.30251,1.25522.44657C96.37251,55.28474,96.44049,55.267,96.44724,55.2473Z"/>
            <path d="M84.16863,50.24152a2.53684,2.53684,0,0,1,.13593-.4185c.08541-.1746.07557-.2496-.13644-.31821-.21953-.07107-.29414.00712-.34847.186-.05143.16938-.116.33586-.1523.50835a1.9892,1.9892,0,0,0-.01228.35989c-.04293.00724-.11607.00274-.12414.02354-.08981.231-.17115.46538-.24863.70086-.00562.01713.03172.0567.057.07444.26526.18568.44012.10513.489-.21732a3.08159,3.08159,0,0,0,.07282-.3119.6726.6726,0,0,0-.07348-.22335A.432.432,0,0,0,84.16863,50.24152Z"/>
            <path d="M94.71186,57.62755a.44711.44711,0,0,0-.10862-.08946c-.19379-.08817-.15884.095-.19278.17841-.14061.34548-.27057.69529-.40817,1.042-.07474.18833.08814.16883.17929.21938.13746.07618.16464-.01394.19087-.115.05142-.19809.1018-.39647.156-.59383C94.5842,58.06619,94.644,57.86435,94.71186,57.62755Z"/>
            <path d="M81.05482,49.89328c-.20976-.07131-.40739-.14081-.5466.16341.44593.13941.88461.28195,1.32812.40749a.213.213,0,0,0,.17672-.1133.21029.21029,0,0,0-.09541-.18478C81.63394,50.0643,81.34039,49.99035,81.05482,49.89328Z"/>
            <path d="M102.60552,48.93675c.06-.19222.10967-.38769.173-.6161-.03227-.04092-.06839-.131-.12795-.15094-.07285-.02427-.21865-.01766-.24057.02408-.13095.24921-.23558.51227-.34768.77127a.06144.06144,0,0,0,.00115.05055C102.1092,49.0811,102.58058,49.01669,102.60552,48.93675Z"/>
            <path d="M86.072,50.13823c-.11142-.02154-.276-.07344-.33241-.02044a.54876.54876,0,0,0-.11758.71819c-.082.04131-.21534.06536-.23617.12727a3.52008,3.52008,0,0,0-.10109.54692l.09908.02212a.03794.03794,0,0,1,.03676.02193c.04233.00607.08467.01216.12649.01852.20839-.16828.39234-.34917.32347-.655.09791-.22373.19929-.44607.28873-.67311C86.1681,50.22236,86.10851,50.1453,86.072,50.13823Z"/>
            <path d="M119.65073,64.52126a.28257.28257,0,0,0-.24588.07464c-.07938.12443-.03056.2403.12512.28643a2.13279,2.13279,0,0,0,.33331.09164.16427.16427,0,0,0,.11088-.04023C120.07072,64.52564,119.81628,64.55892,119.65073,64.52126Z"/>
            <path d="M104.53025,59.53494l-.03166.109c.50972.16283,1.01893.32722,1.53031.48466.03208.00989.081-.03484.122-.05415a.42357.42357,0,0,0-.09539-.06791c-.33977-.11971-.67906-.24125-1.02206-.35117C104.86971,59.60292,104.69824,59.57434,104.53025,59.53494Z"/>
            <path d="M97.76063,42.74948c.0648-.243.14007-.48411.18512-.73072.00852-.04671-.1029-.11533-.159-.17386-.0325.04737-.06311.09614-.09783.1418-.105.138.06538.35426-.13359.47752a1.75842,1.75842,0,0,0,.11937.28792Z"/>
            <path d="M97.28115,43.7362a2.68159,2.68159,0,0,0,.13618-.25451c.02237-.054-.00325-.14247.031-.17448.26235-.24517.26529-.242.01635-.578-.1085.31709-.20923.599-.29585.88513C97.16068,43.64116,97.24158,43.69492,97.28115,43.7362Z"/>
            <path d="M103.78013,58.06646l.09039.0288q.311-.97414.62205-1.94823l-.0948-.03015Q104.08892,57.09169,103.78013,58.06646Z"/>
            <path d="M101.13924,53.56257l1.82991.58592.0264-.09369-1.82272-.59655Z"/>
            <path d="M93.36593,55.56537l-.10446.0022a2.06313,2.06313,0,0,0-.163.39647c-.00857.04148.11222.15245.181.15928.22566.02249.23188-.19329.26959-.32959C93.56424,55.73869,93.43141,55.64272,93.36593,55.56537Z"/>
            <path d="M95.08289,55.40222c-.06771.02494-.17592.03206-.196.07789a5.26536,5.26536,0,0,0-.19789.58223c-.00061.002.06533.02432.10461.03849l-.00032.00167L94.794,56.101l.00511.00181.00286-.01818.073-.14976-.04938.00005.00093-.006-.00387.006.02056-.07378.03526.06773.13721-.14763-.00091-.00607a.64463.64463,0,0,0,.12111-.18906C95.1491,55.5324,95.10273,55.46406,95.08289,55.40222Zm-.09938.20585-.05134-.00693.03152-.08078Zm.00766.0068.04938.00377-.02728.14616ZM95.059,55.595l-.00751.00836.00959-.02748A.049.049,0,0,1,95.059,55.595Z"/>
            <path d="M93.53059,53.47335l.65856.20719.02131-.06993-.64739-.20553Z"/>
            <path d="M93.55646,54.11739l.37513.118.01738-.05043-.37729-.12032Z"/>
            <polygon points="96.495 52.968 96.49 52.973 96.49 52.977 96.495 52.977 96.495 52.968"/>
            <polygon points="96.601 52.868 96.602 52.863 96.601 52.864 96.598 52.87 96.601 52.868"/>
            <path d="M94.38728,52.89961l-.50005-.09419.07891.0614-.00239-.00081c-.03825-.021-.07652-.04194-.11431-.06293-.03655.04169-.0736.08339-.11065.12511l.00692.00079q.02838.076.05712.15176l.21157.00553.0068.05063-.00606-.00308.00007.00005-.0001-.00005.00627.00438-.21821-.05655-.00034-.00091-.00357-.00009.00548.00518,0,0,.00005,0-.10013.04207.55365.10627.03274.01107L94.2883,53.24l.06076-.109-.00382-.00073c.00274-.03754.01684-.09245.00152-.10249a1.861,1.861,0,0,0-.2218-.11107l.24737.05306Zm-.35886.12708.06617.0231-.07422.02868Z"/>
            <path d="M96.38509,53.1347l-.00174.00512.00538-.00556.01628.10146.08577-.0464-.00091-.21241-.05156.00023.00218-.00649-.00438.00649.0002-.15087-.14289.31961Z"/>
            <path d="M96.442,52.81076l-.00568,0,0,.01549.00474-.01062Z"/>
            <path d="M96.49078,52.817l.0044-.00648-.00019.15761.1063-.10375.06308-.11866-.021-.21921-.10036.1269-.00844-.07488c-.01762.0059-.04848.00862-.05078.01819-.017.07062-.02858.14256-.04179.21409l.05094-.00029Z"/>
            <path d="M96.00849,52.62513l.10287-.20274-.06605-.02029Z"/>
            <path d="M96.005,52.64634l.0035-.02121L96,52.64181Z"/>
            <path d="M96.49078,53.18932l0,.00443.00487-.00707c-.01314.11452.03123.114.1042.05606l-.00162.00475.005-.007.05545.07791.18916-.55568-.11888.00382-.07683.31966q.01944-.12575.03912-.25178a.02115.02115,0,0,1-.02674-.017l-.064.05115-.10789.31983Z"/>
            <path d="M95.969,52.83988l.02814-.17959q-.04581.07936-.09193.1584Z"/>
            <path d="M96.00513,52.64649,96,52.64181l-.00289.01848Z"/>
            <path d="M95.45861,55.58739l-.04373.13371.11379-.08477Z"/>
            <path d="M94.451,55.66034l-.00524.00543.00522-.00543-.00522.0054.02959-.22258-.0845.27958-.004.00418-.02841.324.0371.00856.11092-.39676-.06037.00305Z"/>
            <path d="M95.52578,55.74026l-.05545.18634.05675.0338Z"/>
            <polygon points="95.47 55.927 95.465 55.924 95.47 55.928 95.47 55.927"/>
            <polygon points="94.875 55.935 94.882 55.935 94.878 55.929 94.877 55.93 94.875 55.935"/>
            <path d="M88.24078,45.49686l.18468.08516a.0934.0934,0,0,1,.02949-.02929l-.03986-.05968-.16719-.022Z"/>
            <polygon points="88.413 45.489 88.415 45.493 88.417 45.493 88.413 45.489"/>
            <path d="M88.41291,45.4896l.00406.00369.01238-.00316Z"/>
            <path d="M88.4525,45.48424l-.02315.00589.00578.0002A.084.084,0,0,0,88.4525,45.48424Z"/>
            <path d="M95.47,55.92822l-.0048-.00468-.0082.04258Z"/>
        </g>
    </g>
</svg>